<svg width="640" height="503" viewBox="0 0 640 503" fill="none" xmlns="http://www.w3.org/2000/svg">
<g clip-path="url(#clip0)">
<g opacity="0.45">
<path opacity="0.45" d="M12.7 102C12.7 102 12.8 102 12.9 102C21.6 102 30.4 102 39.1 102C54.6 102 70.1 102 85.6 102C97 102 100.6 101.6 112 102C112.1 95 110.2 88.3 106.8 84.8C104 81.9 99.3 80.3 95.4 81.3C90.5 82.6 87.1 85.9 83.9 88.3C82.8 78.6 78.8 69.8 74.5 67.8C67.1 64.5 59.3 69.7 55.9 74.9C53 79.1 51.5 84.1 50.9 89.2C46 84 35.6 80.1 31.9 88.3C30.4 91.5 30.5 95.2 30.7 98.7C24.6 97 17.8 98.3 12.7 102Z" fill="#D2DEF9"/>
</g>
<g opacity="0.45">
<path opacity="0.45" d="M547.8 39.2C546.4 33.5 533.2 25.2 526.1 30.2C523.9 19.4 521.9 12.6 514.8 7.3C507.7 2 495.9 8.9 494 23.6C492.1 17.6 482.4 9.5 474.7 16.3C467.5 22.6 466.8 33.2 467.5 39.2H547.8Z" fill="#D2DEF9"/>
</g>
<g opacity="0.45">
<path opacity="0.45" d="M639.8 114.9C637.6 109.5 633.5 106.6 628.6 106.1C622.4 105.4 616.2 109 616.2 109C616.2 109 618.5 100.1 615.4 93.1C613.3 88.3 609.8 83.8 605.1 82.7C600.2 81.5 595 83.9 591.3 87.7C587.6 91.5 585.3 96.5 583.2 101.5C582.1 97.9 580.7 94 577.5 92.6C574.2 91.2 570.3 93.6 568.6 97C566.9 100.4 566.8 104.5 567 108.3C563.1 106 558.2 105.3 554.4 107.6C551.9 109.1 550.2 112 549.8 115H639.8V114.9Z" fill="#D2DEF9"/>
</g>
<path d="M194.1 236.6C173.9 229.7 156.3 216.1 143.2 199.3C130.1 182.5 115.3 145.6 117.8 114.4C176 131.7 199.6 185.7 203.1 218.5" fill="#D2DEF9"/>
<path d="M117.8 114.4C117.8 114.4 127.4 189.4 194.6 230.8" stroke="white" stroke-width="1.5" stroke-miterlimit="10"/>
<path d="M117.8 114.4C117.8 114.4 157.5 185.5 201 228.8" stroke="white" stroke-width="1.5" stroke-miterlimit="10"/>
<path d="M117.8 114.4C117.8 114.4 176.4 160.9 203.7 224.6" stroke="white" stroke-width="1.5" stroke-miterlimit="10"/>
<path d="M194.3 360.4C171.3 369 145.9 369.2 122.3 363C98.7 356.8 59.5 332.4 39.9 300.6C96.1 281.5 163.5 307.5 189.7 336.3" fill="#D2DEF9"/>
<path d="M39.9 300.6C39.9 300.6 101.1 365.4 190.7 354.5" stroke="white" stroke-width="1.5" stroke-miterlimit="10" stroke-linejoin="round"/>
<path d="M39.9 300.6C39.9 300.6 125.5 339 195 347.8" stroke="white" stroke-width="1.5" stroke-miterlimit="10" stroke-linejoin="round"/>
<path d="M39.9 300.6C39.9 300.6 125.3 301.2 194.5 341.8" stroke="white" stroke-width="1.5" stroke-miterlimit="10" stroke-linejoin="round"/>
<path d="M215.9 202.7C196.4 188.2 182.6 167.4 175.1 144.4C167.6 121.5 166.7 75.9 182.5 42.5C228.6 78.8 243.3 148.7 233.5 185.9" fill="#B3C0FF"/>
<path d="M182.5 42.5C182.5 42.5 161.7 128.1 218.9 196.5" stroke="white" stroke-width="1.5" stroke-miterlimit="10" stroke-linejoin="round"/>
<path d="M182.5 42.5C182.5 42.5 196.7 134.1 226.8 196.5" stroke="white" stroke-width="1.5" stroke-miterlimit="10" stroke-linejoin="round"/>
<path d="M182.5 42.5C182.5 42.5 227.9 113.6 231.5 192.8" stroke="white" stroke-width="1.5" stroke-miterlimit="10" stroke-linejoin="round"/>
<path d="M392.3 191.9C411.9 188.2 430.1 177.9 444.5 164.1C458.9 150.2 477.5 118 479.3 88.7C423.1 97 394 144 386.4 173.9" fill="#D2DEF9"/>
<path d="M479.3 88.7C479.3 88.7 460.5 157 392.6 186.4" stroke="white" stroke-width="1.5" stroke-miterlimit="10" stroke-linejoin="round"/>
<path d="M479.3 88.7C479.3 88.7 433.1 149.4 387 183.7" stroke="white" stroke-width="1.5" stroke-miterlimit="10" stroke-linejoin="round"/>
<path d="M479.3 88.7C479.3 88.7 418.8 124.1 385 179.5" stroke="white" stroke-width="1.5" stroke-miterlimit="10" stroke-linejoin="round"/>
<path d="M447.3 350.5C476 356 506.2 351.8 533.2 340.7C560.2 329.6 602.9 295.6 621 256.8C540 237.9 475.3 286.2 448.8 322.8" fill="#D2DEF9"/>
<path d="M621 256.9C621 256.9 558.7 339.7 450.6 343.4" stroke="white" stroke-width="1.5" stroke-miterlimit="10" stroke-linejoin="round"/>
<path d="M621 256.9C621 256.9 535.8 313.8 448.5 329.9" stroke="white" stroke-width="1.5" stroke-miterlimit="10" stroke-linejoin="round"/>
<path d="M621 256.9C621 256.9 519.7 272.6 444 329.9" stroke="white" stroke-width="1.5" stroke-miterlimit="10" stroke-linejoin="round"/>
<path d="M366.9 184.3C391.6 173.7 411.9 154.7 425.9 131.8C439.9 108.9 452.6 60 444 19.9C385 47.3 351.2 119 352.3 161.6" fill="#E9F1FF"/>
<path d="M444 19.9C444 19.9 444.5 117.7 365.3 176.8" stroke="white" stroke-width="1.5" stroke-miterlimit="10" stroke-linejoin="round"/>
<path d="M444 19.9C444 19.9 405.2 115.2 356.8 174.8" stroke="white" stroke-width="1.5" stroke-miterlimit="10" stroke-linejoin="round"/>
<path d="M444 19.9C444 19.9 376.7 85 352.6 169.7" stroke="white" stroke-width="1.5" stroke-miterlimit="10" stroke-linejoin="round"/>
<path d="M190.4 322.7C177 324.8 154.2 327.9 141.6 319.5C134.6 314.9 133.4 306.3 130.6 298.7C125.9 285.8 116.4 278.1 103.7 275.9C98.6 275 93.2 272.7 90.8 267.9C87.2 260.7 91.6 251.4 88.7 243.8C87.1 239.7 83.7 236.9 80.9 233.6C74.1 225.8 72.5 214.2 72.5 214.2C72.5 214.2 80.7 216.8 89.8 213.9C95.7 212.1 102.1 210.9 108.2 211.9C113 212.7 116.7 215.2 119.8 219C123.6 223.5 126.7 226.9 132.1 228.8C140.5 231.7 161.2 224.7 163.5 236.7C164.1 240 163.3 243.5 164.9 246.6C167.6 252.1 174.2 249.3 178.7 250.7C185.6 252.9 193.2 257.9 196.2 264.4C203.3 279.9 203 301.3 199 318.1" fill="#E9F1FF"/>
<path d="M73.4 214.4C96 238.8 130.1 248 152.2 273C158.8 280.5 164.1 289.2 170.3 297C176.5 304.9 184 312.1 193.2 315.2" stroke="white" stroke-width="1.5" stroke-miterlimit="10" stroke-linejoin="round"/>
<path d="M89.1 261.1C100.9 262.4 118.8 262.1 136.6 258.7C136.6 258.7 132.3 235.8 128.6 227" stroke="white" stroke-width="1.5" stroke-miterlimit="10" stroke-linejoin="round"/>
<path d="M89.5 253.5C102.5 254.4 113.4 253.7 128.5 253.1" stroke="white" stroke-width="1.5" stroke-miterlimit="10" stroke-linejoin="round"/>
<path d="M87.6 241.8C87.6 241.8 98.6 242.2 108.7 240.8" stroke="white" stroke-width="1.5" stroke-miterlimit="10" stroke-linejoin="round"/>
<path d="M76.7 227.1C76.8 227.3 80.2 227.7 88.2 227.5" stroke="white" stroke-width="1.5" stroke-miterlimit="10" stroke-linejoin="round"/>
<path d="M104.2 238.1C104.3 238.2 99 221.9 94.9 212.6" stroke="white" stroke-width="1.5" stroke-miterlimit="10" stroke-linejoin="round"/>
<path d="M125.4 251.1C125.3 251.1 120.2 225.3 115.1 214.6" stroke="white" stroke-width="1.5" stroke-miterlimit="10" stroke-linejoin="round"/>
<path d="M115.2 279.9C115.6 280.1 137.8 281.6 156.1 277.7" stroke="white" stroke-width="1.5" stroke-miterlimit="10" stroke-linejoin="round"/>
<path d="M150.5 271.2C150.5 271.2 148.2 243.7 144.7 229.7" stroke="white" stroke-width="1.5" stroke-miterlimit="10" stroke-linejoin="round"/>
<path d="M168.2 247.4C170.8 264.3 171.1 298 171.1 298C171.1 298 142.5 301.9 130.6 298.6" stroke="white" stroke-width="1.5" stroke-miterlimit="10" stroke-linejoin="round"/>
<path d="M183.4 310C183.4 310 184.4 271.9 182.2 252" stroke="white" stroke-width="1.5" stroke-miterlimit="10" stroke-linejoin="round"/>
<path d="M132.7 306.2C132.7 306.2 155.8 309.5 175.2 302.7" stroke="white" stroke-width="1.5" stroke-miterlimit="10" stroke-linejoin="round"/>
<path d="M188.1 313C188.1 313 194.7 282.9 189.9 256.5" stroke="white" stroke-width="1.5" stroke-miterlimit="10" stroke-linejoin="round"/>
<path d="M374.8 159C380.9 143.3 390.8 127.7 384.7 110.3C381.3 100.7 371.1 96.6 363.2 91.5C349.7 82.6 343.7 69.1 344.7 53.2C345.1 46.8 344 39.7 339.1 35.6C331.9 29.4 320 32.5 312.2 27.1C308 24.2 305.7 19.4 302.7 15.2C295.7 4.9 283 0 283 0C283 0 283.7 10.6 277.9 21C274.2 27.7 271.1 35.1 270.5 42.9C270 49 271.9 54 275.4 58.8C279.5 64.5 282.5 69.2 283.2 76.2C284.2 87.1 270.4 110.5 283.5 116.3C287.1 117.9 291.3 117.8 294.4 120.4C300 125.1 294.9 132.4 295.3 138.2C295.9 147.1 299.4 157.6 306 162.8C321.7 175.2 346.1 180.2 366.4 179.5" fill="#E9F1FF"/>
<path d="M283 1.1C304.5 34.6 305.5 78.3 327.9 111.3C334.6 121.2 343 129.8 350.3 139.3C357.5 148.8 363.7 159.7 364.6 171.6" stroke="white" stroke-width="1.5" stroke-miterlimit="10" stroke-linejoin="round"/>
<path d="M316 88.8C316 88.8 291.1 77.8 282.2 71.2" stroke="white" stroke-width="1.5" stroke-miterlimit="10" stroke-linejoin="round"/>
<path d="M323.1 30.3C320.6 46.3 316.7 59.3 311.8 77.5" stroke="white" stroke-width="1.5" stroke-miterlimit="10" stroke-linejoin="round"/>
<path d="M310.3 25.1C310.3 25.1 307.7 38.6 303.3 50.4" stroke="white" stroke-width="1.5" stroke-miterlimit="10" stroke-linejoin="round"/>
<path d="M296.5 8.3C296.7 8.4 296.2 12.7 293.8 22.4" stroke="white" stroke-width="1.5" stroke-miterlimit="10" stroke-linejoin="round"/>
<path d="M301.5 44.4C301.5 44.5 284.5 34.1 275 26.8" stroke="white" stroke-width="1.5" stroke-miterlimit="10" stroke-linejoin="round"/>
<path d="M310.4 73.3C310.4 73.2 282.5 60.6 271.6 51.8" stroke="white" stroke-width="1.5" stroke-miterlimit="10" stroke-linejoin="round"/>
<path d="M344.1 44.4C341.7 53.6 337 77.6 323.1 101.4" stroke="white" stroke-width="1.5" stroke-miterlimit="10" stroke-linejoin="round"/>
<path d="M326.3 108.8C326.3 108.8 295.6 99.2 280.6 91.4" stroke="white" stroke-width="1.5" stroke-miterlimit="10" stroke-linejoin="round"/>
<path d="M361.4 158.3C361.4 158.3 317.7 150.1 295.6 142.4" stroke="white" stroke-width="1.5" stroke-miterlimit="10" stroke-linejoin="round"/>
<path d="M371.2 95.9C371.2 95.9 368.5 124.7 355.5 146.7" stroke="white" stroke-width="1.5" stroke-miterlimit="10" stroke-linejoin="round"/>
<path d="M462.6 296.7C480 293.3 499.3 293.5 511.4 278.4C518.1 270.1 515.9 258.7 516.2 248.8C516.6 231.9 525.2 219 540 211C545.9 207.8 551.6 202.9 552.6 196.2C554.1 186.3 544.7 177.6 545.2 167.6C545.4 162.2 548.4 157.5 550.5 152.5C555.6 140.6 552.9 126.5 552.9 126.5C552.9 126.5 543.9 133 531.4 133.6C523.4 134 515.1 135.4 507.8 139.2C502.2 142.2 498.7 146.6 496.4 152.4C493.6 159.2 491.2 164.5 485.3 169C476.2 175.9 447.7 176.8 449.9 191.6C450.5 195.6 452.9 199.4 452.3 203.5C451.2 211.1 441.9 210.7 436.9 214.2C429.3 219.7 422 228.7 421 237.4C418.7 258.3 427.9 282.7 439.8 300.4" fill="#E9F1FF"/>
<path d="M551.8 127.2C534.1 165 495.7 190.2 478.9 228.4C473.9 239.9 470.9 252.1 466.5 263.9C462.1 275.6 455.8 287.1 445.8 294.6" stroke="white" stroke-width="1.5" stroke-miterlimit="10" stroke-linejoin="round"/>
<path d="M551.8 187.7C537.8 194.2 515.6 201.6 492.2 205.4C492.2 205.4 488.1 177.2 489 165.5" stroke="white" stroke-width="1.5" stroke-miterlimit="10" stroke-linejoin="round"/>
<path d="M548.2 179.1C532.6 185.8 518.8 189.5 499.9 195.3" stroke="white" stroke-width="1.5" stroke-miterlimit="10" stroke-linejoin="round"/>
<path d="M545.7 164.9C545.7 164.9 532.2 170.1 519.3 172.8" stroke="white" stroke-width="1.5" stroke-miterlimit="10" stroke-linejoin="round"/>
<path d="M553 143.2C553 143.4 548.9 145.4 539 148.7" stroke="white" stroke-width="1.5" stroke-miterlimit="10" stroke-linejoin="round"/>
<path d="M523.7 167.7C523.6 167.8 523.4 146.8 524.6 134.4" stroke="white" stroke-width="1.5" stroke-miterlimit="10" stroke-linejoin="round"/>
<path d="M502.9 191.7C503 191.6 498.7 159.8 500.4 145.3" stroke="white" stroke-width="1.5" stroke-miterlimit="10" stroke-linejoin="round"/>
<path d="M527.4 220.5C527 220.9 500.2 232.2 476.1 235.6" stroke="white" stroke-width="1.5" stroke-miterlimit="10" stroke-linejoin="round"/>
<path d="M480.2 225.6C480.2 225.6 471.6 193 470.2 175.3" stroke="white" stroke-width="1.5" stroke-miterlimit="10" stroke-linejoin="round"/>
<path d="M448.6 205.9C452.4 226.5 465.9 265.4 465.9 265.4C465.9 265.4 502.8 257.6 516.1 248.7" stroke="white" stroke-width="1.5" stroke-miterlimit="10" stroke-linejoin="round"/>
<path d="M455.8 284.4C455.8 284.4 438.8 241 433.3 217.1" stroke="white" stroke-width="1.5" stroke-miterlimit="10" stroke-linejoin="round"/>
<path d="M516.7 258.3C516.7 258.3 489.6 272 462.8 272.6" stroke="white" stroke-width="1.5" stroke-miterlimit="10" stroke-linejoin="round"/>
<path d="M451.2 289.9C451.2 289.9 430.6 258.2 425.6 225.7" stroke="white" stroke-width="1.5" stroke-miterlimit="10" stroke-linejoin="round"/>
<path d="M392.2 225.7C394.6 230.7 404.2 251.6 406.5 256.6C398.8 259.1 391.7 262.2 384.2 265.1C381 269.4 388.1 260.9 388.5 256.2" fill="#F777BA"/>
<path d="M408.7 263.5L404.3 265C404.1 264.6 403.8 263.2 403.5 262.9C402.7 263.2 401 263.9 400.8 264.1C400.6 264.2 400.5 264.8 400.3 265.3C400.1 266 399.6 266.6 398.9 266.8L381.6 272.8C379.5 273.5 378.2 271 380.1 269C381.8 267.1 385.4 263.1 385.6 263C392.7 261.3 403.5 256.1 404.9 253C407.3 254.2 408.7 263.4 408.7 263.5Z" fill="#0B0B3A"/>
<path d="M390.3 168.9C390.7 180.2 389.5 202.9 391 212.6C392 218.7 402.9 248.8 402.9 248.8L388.5 256.3C388.5 256.3 376.2 237.2 369.1 214.7C364.5 200.1 364.2 184 364.2 170.8" fill="#F777BA"/>
<path d="M427.8 202.3C431.8 206 448.5 221.9 452.6 225.6C446.4 230.7 441 236.3 435.1 241.8C433.7 247 437.2 236.4 435.8 232" fill="#F777BA"/>
<path d="M457.2 231.3L453.7 234.3C453.4 233.9 452.6 232.9 452.2 232.6C451.5 233.2 450.2 234.5 450.1 234.7C450 234.9 450.1 235.5 450.1 236C450.2 236.8 449.9 237.5 449.4 237.9L435.5 249.9C433.8 251.4 431.7 249.5 432.7 246.9C433.6 244.6 435.5 239.5 435.6 239.3C441.6 235.1 449.7 226.3 449.8 222.8C452.4 223.2 457.2 231.2 457.2 231.3Z" fill="#0B0B3A"/>
<path d="M413.8 147.6C413.8 147.6 412.9 180.9 417.5 189.4C422.9 199.4 440.5 214.4 440.5 214.4L435.8 232C435.8 232 411.2 218.2 398.3 201.7C388.5 189.1 388.1 149.5 388.1 149.5" fill="#F777BA"/>
<path d="M412.4 119.7C429.8 133.1 428.3 186.7 428.3 186.7C428.3 186.7 409 191.8 393.2 191.8C377.4 191.8 361 189.3 361 189.3C362 143.2 370.1 131.2 374.8 123.3" fill="#18277A"/>
<path d="M380 46.5C380 46.5 383.9 57.9 383.3 60.6C382.7 63.3 374 62.5 371.8 62.4C371.6 56.6 373.6 48.4 373.6 48.4" fill="#212237"/>
<path d="M381.4 59.9L382.3 66.3C382.3 66.3 386.9 69.3 390.8 67.7C394.9 66 394.7 63.8 394.7 63.8L389.8 52.1" fill="#F777BA"/>
<path d="M374.9 48.8C374.8 57 376.3 63.4 381.7 63C387.4 62.6 391.6 57.9 389.6 51.5C387.4 44.7 375.3 44 374.9 48.8Z" fill="#F777BA"/>
<path d="M381.9 63.4C384.7 62.9 388 61.5 389.5 57.7" stroke="#CC328A" stroke-width="0.75" stroke-miterlimit="10" stroke-linejoin="round"/>
<path d="M388.6 51.1C388.6 51.1 388.6 51.2 388.6 51.1C388.6 51.2 388.6 51.2 388.6 51.2C388.7 51.2 388.7 51.2 388.6 51.1C388.7 51.2 388.7 51.1 388.6 51.1C388.7 51.1 388.7 51.1 388.6 51.1C388.7 51.1 388.6 51.1 388.6 51.1Z" fill="#FF855A"/>
<path d="M383.4 48.2C378.8 49.4 375.5 49.3 372.4 48.1C372.9 45.3 374.6 41.4 379.7 41.3C383.3 38 387.5 39.2 388.6 39.5C391.6 40.5 393.6 42.3 395.2 45C397.8 49.4 398.4 56.1 398.3 59.8C394.3 60.9 390.9 61.5 388.3 61.6C388.5 61.7 386.8 50.6 383.4 48.2Z" fill="#212237"/>
<path d="M386.1 53.6C386 53.4 386.2 52.7 386.8 52.3C387.9 51.6 389 53 389.1 54.2C389.2 55 389 55.6 388.6 56.3C388.1 57.2 387.2 57.6 386.5 56.7" fill="#F777BA"/>
<path d="M379.1 53.1C379.1 53.1 378.2 56.2 378.5 56.9C378.9 57.6 380.6 57.2 380.6 57.2" stroke="#CC328A" stroke-width="0.5" stroke-miterlimit="10" stroke-linejoin="round"/>
<path d="M379 58.7L384 58C384 58 383.8 60.7 381.1 60.9C379.1 61 379 58.7 379 58.7Z" fill="white"/>
<path d="M376.9 52.8C376.9 52.9 376.9 53 376.9 53C376.9 53.1 376.9 53.1 376.9 53.2C376.9 53.3 376.9 53.4 376.9 53.5C376.9 53.6 376.9 53.7 377 53.8C377.1 53.9 377.2 53.9 377.3 53.9C377.4 53.9 377.5 53.9 377.6 53.8C377.7 53.7 377.7 53.6 377.7 53.5C377.7 53.4 377.7 53.3 377.7 53.2C377.7 53.1 377.7 52.9 377.6 52.8V52.7L377.5 52.6C377.4 52.6 377.4 52.5 377.3 52.5C377.2 52.5 377.2 52.5 377.1 52.5C377 52.6 376.9 52.7 376.9 52.8Z" fill="#00276F"/>
<path d="M378.2 51.3C378.2 51.3 377.2 50.5 376.4 51.6" stroke="#00276F" stroke-width="0.5" stroke-miterlimit="10" stroke-linecap="round" stroke-linejoin="round"/>
<path d="M382.7 52.6C382.7 52.7 382.7 52.7 382.7 52.8C382.7 52.9 382.7 52.9 382.7 53C382.7 53.1 382.7 53.2 382.7 53.3C382.7 53.4 382.7 53.4 382.7 53.5C382.7 53.5 382.7 53.6 382.8 53.6C382.9 53.7 383 53.7 383.1 53.7C383.2 53.7 383.3 53.7 383.4 53.6C383.5 53.5 383.5 53.4 383.5 53.3C383.5 53.2 383.5 53 383.5 52.9C383.5 52.8 383.5 52.8 383.5 52.7C383.5 52.6 383.5 52.6 383.5 52.5C383.5 52.4 383.4 52.3 383.3 52.3C383.2 52.3 383.2 52.2 383.1 52.3C383 52.3 383 52.3 382.9 52.4C382.9 52.4 382.9 52.4 382.8 52.5C382.7 52.5 382.7 52.5 382.7 52.6Z" fill="#00276F"/>
<path d="M382 50.8C382 50.8 383 50.1 384.7 51.1" stroke="#00276F" stroke-width="0.5" stroke-miterlimit="10" stroke-linecap="round" stroke-linejoin="round"/>
<path d="M377.1 94.1C361.4 115.9 329.3 135.6 329.3 135.6L322.7 127.2C322.7 127.2 346.7 107 361.2 83.9" fill="#F777BA"/>
<path d="M325.5 124.9C322.6 127.5 312.7 133.5 312.9 134.3C313.1 135.1 316.6 133 316.7 133.6C316.8 134.3 311.6 137.8 312 138.5C312.6 139.5 317.6 135.5 317.6 135.5C317.6 135.5 312.3 140.1 313.1 140.8C313.6 141.3 317.9 138 319.6 136.9C317.8 138.3 315.2 140.9 315.8 141.4C316.4 141.9 319.3 139.7 321.6 138.2C320.2 139.3 317.9 141.5 318.4 142C318.9 142.5 326.4 137.6 333.3 132.8" fill="#F777BA"/>
<path d="M317.9 133.6C317.9 133.6 321.7 133.7 323.3 132.9" stroke="#CC328A" stroke-width="0.75" stroke-miterlimit="10" stroke-linejoin="round"/>
<path d="M380.5 66.4C373.6 65.2 367.5 70.1 364.8 74.3C359.4 82.9 356.5 89.7 356.5 89.7L372.7 99.4L381.9 70.5" fill="#FF9357"/>
<path d="M380.5 66.4C383.7 67 384.5 68.1 386.7 67.4C390.8 66.1 393.9 64 393.9 64C391.2 64.2 402.6 66.3 411.4 75.5C414.3 85.6 414.7 95.6 415.5 122.2C393.8 129.2 374.9 123.3 374.9 123.3C374.9 123.3 372.4 111.7 369.6 103.1C365.7 95.2 367.4 86.3 371.8 79C371.9 74.6 380.5 66.4 380.5 66.4Z" fill="#FF9357"/>
<path d="M393.6 61.3L386.2 67.5L390.9 72.6L395.8 65.1L393.6 61.3Z" fill="white"/>
<path d="M386.2 67.5L382 64.2L380.5 66.4L382.5 72.4L386.2 67.5Z" fill="white"/>
<path d="M367.4 94.1C367.1 89 370.2 81 370.2 81" stroke="#A52F2D" stroke-width="0.75" stroke-miterlimit="10"/>
<path d="M424.3 267.3C421.7 267.1 420.1 270.1 421.8 272.1C425 276 426.7 280.8 426.3 285.9C425.5 297.6 414 306.3 400.7 305.4C387.4 304.5 377.2 294.2 378.1 282.5C378.5 277.4 380.8 272.9 384.5 269.5C386.4 267.7 385.3 264.5 382.7 264.4L350.3 262.1C343.5 261.6 337.6 266.7 337.2 273.5L335 304.8C334.8 307.3 337.6 308.9 339.7 307.4C343.4 304.8 347.7 303.4 352.3 303.8C364 304.6 372.7 316.1 371.8 329.4C370.9 342.7 360.6 352.9 348.9 352C344.3 351.7 340.2 349.7 336.9 346.6C335.1 344.9 332 346 331.9 348.5L329.7 379.8C329.2 386.6 334.3 392.5 341.1 392.9L447.6 400.4C454.4 400.9 460.3 395.8 460.7 389L468.2 282.5C468.7 275.7 463.6 269.8 456.8 269.4L424.3 267.3Z" fill="#7482FF"/>
<path d="M424.3 267.3C421.7 267.1 420.1 270.1 421.8 272.1C425 276 426.7 280.8 426.3 285.9C425.5 297.6 414 306.3 400.7 305.4C387.4 304.5 377.2 294.2 378.1 282.5C378.5 277.4 380.8 272.9 384.5 269.5C386.4 267.7 385.3 264.5 382.7 264.4L350.3 262.1C343.5 261.6 337.6 266.7 337.2 273.5L335 304.8C334.8 307.3 337.6 308.9 339.7 307.4C343.4 304.8 347.7 303.4 352.3 303.8C364 304.6 372.7 316.1 371.8 329.4C370.9 342.7 360.6 352.9 348.9 352C344.3 351.7 340.2 349.7 336.9 346.6C335.1 344.9 332 346 331.9 348.5L329.7 379.8C329.2 386.6 334.3 392.5 341.1 392.9L447.6 400.4C454.4 400.9 460.3 395.8 460.7 389L468.2 282.5C468.7 275.7 463.6 269.8 456.8 269.4L424.3 267.3Z" fill="#7482FF"/>
<g opacity="0.19">
<path opacity="0.19" d="M437.569 486.532C471.102 483.91 496.161 454.601 493.539 421.067C490.917 387.534 461.607 362.476 428.074 365.098C394.541 367.719 369.482 397.029 372.104 430.562C374.726 464.095 404.036 489.154 437.569 486.532Z" fill="#7482FF"/>
<path opacity="0.19" d="M431.7 462.8C452.963 462.8 470.2 445.563 470.2 424.3C470.2 403.037 452.963 385.8 431.7 385.8C410.437 385.8 393.2 403.037 393.2 424.3C393.2 445.563 410.437 462.8 431.7 462.8Z" fill="#7482FF"/>
<path opacity="0.19" d="M438.026 445.194C448.742 442.296 455.08 431.261 452.183 420.545C449.286 409.829 438.25 403.491 427.534 406.389C416.818 409.286 410.48 420.322 413.378 431.037C416.275 441.753 427.311 448.091 438.026 445.194Z" fill="#7482FF"/>
</g>
<path d="M296.8 259.1C296.3 259.1 295.7 259.1 295.2 259L262.8 254.9C261.3 254.7 260.1 253.7 259.7 252.2C259.3 250.7 259.7 249.3 260.9 248.3C264.8 245.1 267.3 240.7 267.9 236C268.6 230.6 266.8 225.2 262.9 220.8C259 216.4 253.4 213.5 247.2 212.7C246.1 212.6 245 212.5 243.8 212.5C232.3 212.5 222.6 220.1 221.4 230.1C220.8 234.8 222.1 239.7 225.1 243.7C225.9 244.9 226.1 246.3 225.4 247.6C224.8 248.9 223.5 249.7 222.1 249.7C221.9 249.7 221.8 249.7 221.6 249.7L189.2 245.6C185.7 245.2 182.7 243.4 180.5 240.7C178.4 237.9 177.4 234.5 177.9 231.1L191.2 125.2C192 118.7 197.6 113.8 204.1 113.8C204.6 113.8 205.2 113.8 205.7 113.9L311.6 127.2C315.1 127.6 318.1 129.4 320.3 132.1C322.4 134.9 323.4 138.3 322.9 141.7L318.9 173.5C318.7 175.4 317.1 176.8 315.2 176.8C314.1 176.8 313.1 176.3 312.4 175.5C309.2 171.8 305.1 169.6 300.6 169C299.9 168.9 299.1 168.9 298.3 168.9C287.8 168.9 278.8 177.9 277.3 189.7C275.7 202.5 283.5 214.1 294.7 215.5C295.4 215.6 296.2 215.6 297 215.6C300.8 215.6 304.5 214.4 307.8 212.1C308.4 211.7 309.1 211.4 309.9 211.4C311 211.4 312 211.9 312.7 212.7C313.4 213.5 313.7 214.5 313.6 215.6L309.6 247.4C308.9 254.2 303.4 259.1 296.8 259.1Z" fill="#FFC7CA"/>
<path d="M204.2 114.6C204.7 114.6 205.2 114.6 205.7 114.7L311.7 128C318.4 128.8 323.2 135 322.4 141.7L318.4 173.5C318.2 175.1 316.8 176.1 315.4 176.1C314.6 176.1 313.8 175.8 313.2 175.1C310 171.5 305.8 169 300.9 168.4C300.1 168.3 299.3 168.3 298.5 168.3C287.8 168.3 278.3 177.4 276.8 189.8C275.1 203.1 283.2 215 294.9 216.4C295.7 216.5 296.5 216.5 297.2 216.5C301.2 216.5 305.1 215.2 308.4 212.9C308.9 212.5 309.5 212.4 310.1 212.4C311.8 212.4 313.3 213.9 313.1 215.8L309.1 247.6C308.3 253.8 303 258.4 296.9 258.4C296.4 258.4 295.9 258.4 295.4 258.3L263 254.2C260.4 253.9 259.5 250.6 261.5 249C265.4 245.8 268.1 241.3 268.7 236.2C270.2 224.6 260.6 213.8 247.3 212.1C246.1 212 245 211.9 243.8 211.9C232 211.9 221.9 219.6 220.6 230.2C220 235.3 221.5 240.3 224.5 244.4C226 246.4 224.5 249.1 222.1 249.1C222 249.1 221.8 249.1 221.7 249.1L189.3 245C182.6 244.2 177.8 238 178.6 231.3L192 125.3C192.8 119.1 198.1 114.6 204.2 114.6ZM204.2 113.1C197.3 113.1 191.4 118.3 190.5 125.2L177.2 231C176.3 238.5 181.6 245.5 189.2 246.4L221.6 250.5C221.8 250.5 222 250.5 222.2 250.5C223.9 250.5 225.4 249.6 226.2 248C227 246.5 226.8 244.7 225.8 243.3C222.9 239.4 221.6 234.7 222.2 230.2C223.4 220.5 232.7 213.2 243.9 213.2C245 213.2 246.1 213.3 247.2 213.4C253.2 214.2 258.7 216.9 262.5 221.2C266.2 225.4 267.9 230.6 267.3 235.8C266.7 240.3 264.3 244.5 260.6 247.6C259.2 248.7 258.6 250.5 259.1 252.3C259.6 254.1 261 255.3 262.8 255.5L295.2 259.6C295.8 259.7 296.4 259.7 296.9 259.7C303.8 259.7 309.7 254.5 310.6 247.6L314.6 215.8C314.8 214.5 314.4 213.3 313.5 212.3C312.6 211.3 311.4 210.8 310.1 210.8C309.2 210.8 308.3 211.1 307.6 211.6C304.4 213.8 300.8 214.9 297.2 214.9C296.5 214.9 295.8 214.9 295 214.8C284.2 213.4 276.7 202.2 278.2 189.8C279.6 178.3 288.3 169.6 298.4 169.6C299.1 169.6 299.9 169.6 300.6 169.7C305 170.2 308.9 172.4 312 175.9C312.9 176.9 314 177.4 315.3 177.4C317.6 177.4 319.5 175.7 319.8 173.5L323.8 141.7C324.7 134.2 319.4 127.2 311.8 126.3L205.9 113C205.4 113.1 204.8 113.1 204.2 113.1Z" fill="white"/>
<g opacity="0.25">
<path opacity="0.25" d="M191.6 187.5C225.234 187.5 252.5 160.234 252.5 126.6C252.5 92.9659 225.234 65.7 191.6 65.7C157.966 65.7 130.7 92.9659 130.7 126.6C130.7 160.234 157.966 187.5 191.6 187.5Z" stroke="white" stroke-width="11" stroke-miterlimit="10"/>
<path opacity="0.25" d="M190.3 166.8C213.22 166.8 231.8 148.22 231.8 125.3C231.8 102.38 213.22 83.8 190.3 83.8C167.38 83.8 148.8 102.38 148.8 125.3C148.8 148.22 167.38 166.8 190.3 166.8Z" stroke="white" stroke-width="11" stroke-miterlimit="10"/>
<path opacity="0.25" d="M191.6 146.7C202.701 146.7 211.7 137.701 211.7 126.6C211.7 115.499 202.701 106.5 191.6 106.5C180.499 106.5 171.5 115.499 171.5 126.6C171.5 137.701 180.499 146.7 191.6 146.7Z" stroke="white" stroke-width="11" stroke-miterlimit="10"/>
</g>
<path d="M448.9 121.1L342.1 120C335.3 119.9 329.7 125.4 329.7 132.2L329.4 163.8C329.4 166.3 326.4 167.7 324.5 166C321 163 316.7 161.2 312 161.2C300.3 161.1 290.7 171.8 290.5 185.2C290.4 198.6 299.8 209.5 311.5 209.6C316.2 209.6 320.6 207.9 324.1 205C326 203.4 329 204.8 328.9 207.4L328.6 239C328.5 245.8 334 251.4 340.8 251.4L373.5 251.7C376.1 251.7 377.4 254.9 375.6 256.7C372 260.4 369.9 265.1 369.8 270.3C369.7 282 380.4 291.6 393.8 291.8C407.2 291.9 418.1 282.5 418.2 270.8C418.3 265.6 416.2 260.8 412.7 257.1C410.9 255.2 412.3 252.1 414.9 252.1L447.6 252.4C454.4 252.5 459.9 247 460 240.2L461.1 133.5C461.1 126.7 455.7 121.2 448.9 121.1Z" fill="#B3C0FF"/>
<path d="M330.9 302.7C326 303 321.7 305.1 318.3 308.4C316.5 310.2 313.4 309 313.3 306.4L311.5 274.5C311.1 267.7 305.3 262.5 298.5 262.9L266 264.7C263.4 264.8 261.9 261.8 263.5 259.8C266.7 255.9 268.6 251.1 268.3 246C267.6 234.3 256.3 225.4 243 226.2C229.7 226.9 219.4 237 220 248.8C220.3 253.9 222.6 258.5 226.3 262C228.2 263.8 227 267 224.4 267.1L191.9 268.9C185.1 269.3 179.9 275.1 180.3 281.9L186.3 388.5C186.7 395.3 192.5 400.5 199.3 400.1L305.9 394.1C312.7 393.7 317.9 387.9 317.5 381.1L315.7 349.2C315.6 346.7 318.5 345.1 320.5 346.7C324.2 349.6 328.8 351.3 333.7 351C345.4 350.3 354.3 339 353.5 325.7C352.7 312.3 342.6 302.1 330.9 302.7Z" fill="#B3C0FF"/>
<g opacity="0.35">
<path opacity="0.35" d="M123.6 356.9C122.1 357.3 120.5 356.3 120.1 354.8C119.7 353.3 120.7 351.7 122.2 351.3C123.7 350.9 125.3 351.9 125.7 353.4C126 354.9 125.1 356.5 123.6 356.9Z" fill="white"/>
<path opacity="0.35" d="M149.9 350.3C148.4 350.7 146.8 349.7 146.4 348.2C146 346.7 147 345.1 148.5 344.7C150 344.3 151.6 345.3 152 346.8C152.4 348.4 151.4 349.9 149.9 350.3Z" fill="white"/>
<path opacity="0.35" d="M176.2 343.8C174.7 344.2 173.1 343.2 172.7 341.7C172.3 340.2 173.3 338.6 174.8 338.2C176.3 337.8 177.9 338.8 178.3 340.3C178.7 341.8 177.7 343.4 176.2 343.8Z" fill="white"/>
<path opacity="0.35" d="M202.5 337.2C201 337.6 199.4 336.6 199 335.1C198.6 333.6 199.6 332 201.1 331.6C202.6 331.2 204.2 332.2 204.6 333.7C205 335.2 204.1 336.8 202.5 337.2Z" fill="white"/>
<path opacity="0.35" d="M228.8 330.6C227.3 331 225.7 330 225.3 328.5C224.9 327 225.9 325.4 227.4 325C228.9 324.6 230.5 325.6 230.9 327.1C231.3 328.7 230.4 330.2 228.8 330.6Z" fill="white"/>
<path opacity="0.35" d="M255.2 324.1C253.7 324.5 252.1 323.5 251.7 322C251.3 320.5 252.3 318.9 253.8 318.5C255.3 318.1 256.9 319.1 257.3 320.6C257.6 322.1 256.7 323.7 255.2 324.1Z" fill="white"/>
<path opacity="0.35" d="M281.5 317.5C280 317.9 278.4 316.9 278 315.4C277.6 313.9 278.6 312.3 280.1 311.9C281.6 311.5 283.2 312.5 283.6 314C284 315.5 283 317.1 281.5 317.5Z" fill="white"/>
<path opacity="0.35" d="M128.9 378.5C127.4 378.9 125.8 377.9 125.4 376.4C125 374.9 126 373.3 127.5 372.9C129 372.5 130.6 373.5 131 375C131.4 376.6 130.5 378.1 128.9 378.5Z" fill="white"/>
<path opacity="0.35" d="M155.3 371.9C153.8 372.3 152.2 371.3 151.8 369.8C151.4 368.3 152.4 366.7 153.9 366.3C155.4 365.9 157 366.9 157.4 368.4C157.7 370 156.8 371.5 155.3 371.9Z" fill="white"/>
<path opacity="0.35" d="M181.6 365.4C180.1 365.8 178.5 364.8 178.1 363.3C177.7 361.8 178.7 360.2 180.2 359.8C181.7 359.4 183.3 360.4 183.7 361.9C184.1 363.4 183.1 365 181.6 365.4Z" fill="white"/>
<path opacity="0.35" d="M207.9 358.8C206.4 359.2 204.8 358.2 204.4 356.7C204 355.2 205 353.6 206.5 353.2C208 352.8 209.6 353.8 210 355.3C210.4 356.9 209.4 358.4 207.9 358.8Z" fill="white"/>
<path opacity="0.35" d="M234.2 352.2C232.7 352.6 231.1 351.6 230.7 350.1C230.3 348.6 231.3 347 232.8 346.6C234.3 346.2 235.9 347.2 236.3 348.7C236.7 350.3 235.8 351.9 234.2 352.2Z" fill="white"/>
<path opacity="0.35" d="M260.5 345.7C259 346.1 257.4 345.1 257 343.6C256.6 342.1 257.6 340.5 259.1 340.1C260.6 339.7 262.2 340.7 262.6 342.2C263 343.7 262.1 345.3 260.5 345.7Z" fill="white"/>
<path opacity="0.35" d="M286.9 339.1C285.4 339.5 283.8 338.5 283.4 337C283 335.5 284 333.9 285.5 333.5C287 333.1 288.6 334.1 289 335.6C289.3 337.2 288.4 338.7 286.9 339.1Z" fill="white"/>
<path opacity="0.35" d="M134.3 400.1C132.8 400.5 131.2 399.5 130.8 398C130.4 396.5 131.4 394.9 132.9 394.5C134.4 394.1 136 395.1 136.4 396.6C136.8 398.2 135.9 399.7 134.3 400.1Z" fill="white"/>
<path opacity="0.35" d="M160.7 393.5C159.2 393.9 157.6 392.9 157.2 391.4C156.8 389.9 157.8 388.3 159.3 387.9C160.8 387.5 162.4 388.5 162.8 390C163.1 391.6 162.2 393.2 160.7 393.5Z" fill="white"/>
<path opacity="0.35" d="M187 387C185.5 387.4 183.9 386.4 183.5 384.9C183.1 383.4 184.1 381.8 185.6 381.4C187.1 381 188.7 382 189.1 383.5C189.5 385 188.5 386.6 187 387Z" fill="white"/>
<path opacity="0.35" d="M213.3 380.4C211.8 380.8 210.2 379.8 209.8 378.3C209.4 376.8 210.4 375.2 211.9 374.8C213.4 374.4 215 375.4 215.4 376.9C215.8 378.5 214.8 380 213.3 380.4Z" fill="white"/>
<path opacity="0.35" d="M239.6 373.8C238.1 374.2 236.5 373.2 236.1 371.7C235.7 370.2 236.7 368.6 238.2 368.2C239.7 367.8 241.3 368.8 241.7 370.3C242.1 371.9 241.2 373.5 239.6 373.8Z" fill="white"/>
<path opacity="0.35" d="M265.9 367.3C264.4 367.7 262.8 366.7 262.4 365.2C262 363.7 263 362.1 264.5 361.7C266 361.3 267.6 362.3 268 363.8C268.4 365.3 267.5 366.9 265.9 367.3Z" fill="white"/>
<path opacity="0.35" d="M294.043 359.352C294.862 357.976 294.411 356.196 293.035 355.377C291.659 354.557 289.879 355.009 289.06 356.385C288.24 357.761 288.692 359.541 290.068 360.36C291.444 361.179 293.224 360.728 294.043 359.352Z" fill="white"/>
<path opacity="0.35" d="M139.7 421.7C138.2 422.1 136.6 421.1 136.2 419.6C135.8 418.1 136.8 416.5 138.3 416.1C139.8 415.7 141.4 416.7 141.8 418.2C142.2 419.8 141.3 421.3 139.7 421.7Z" fill="white"/>
<path opacity="0.35" d="M166 415.2C164.5 415.6 162.9 414.6 162.5 413.1C162.1 411.6 163.1 410 164.6 409.6C166.1 409.2 167.7 410.2 168.1 411.7C168.5 413.2 167.6 414.8 166 415.2Z" fill="white"/>
<path opacity="0.35" d="M192.4 408.6C190.9 409 189.3 408 188.9 406.5C188.5 405 189.5 403.4 191 403C192.5 402.6 194.1 403.6 194.5 405.1C194.8 406.6 193.9 408.2 192.4 408.6Z" fill="white"/>
<path opacity="0.35" d="M218.7 402C217.2 402.4 215.6 401.4 215.2 399.9C214.8 398.4 215.8 396.8 217.3 396.4C218.8 396 220.4 397 220.8 398.5C221.2 400.1 220.2 401.6 218.7 402Z" fill="white"/>
<path opacity="0.35" d="M245 395.5C243.5 395.9 241.9 394.9 241.5 393.4C241.1 391.9 242.1 390.3 243.6 389.9C245.1 389.5 246.7 390.5 247.1 392C247.5 393.5 246.5 395.1 245 395.5Z" fill="white"/>
<path opacity="0.35" d="M271.3 388.9C269.8 389.3 268.2 388.3 267.8 386.8C267.4 385.3 268.4 383.7 269.9 383.3C271.4 382.9 273 383.9 273.4 385.4C273.8 386.9 272.9 388.5 271.3 388.9Z" fill="white"/>
<path opacity="0.35" d="M299.43 380.948C300.249 379.572 299.798 377.792 298.422 376.973C297.046 376.154 295.266 376.605 294.447 377.981C293.627 379.357 294.079 381.137 295.455 381.956C296.831 382.776 298.611 382.324 299.43 380.948Z" fill="white"/>
<path opacity="0.35" d="M145.1 443.3C143.6 443.7 142 442.7 141.6 441.2C141.2 439.7 142.2 438.1 143.7 437.7C145.2 437.3 146.8 438.3 147.2 439.8C147.6 441.4 146.7 442.9 145.1 443.3Z" fill="white"/>
<path opacity="0.35" d="M171.4 436.8C169.9 437.2 168.3 436.2 167.9 434.7C167.5 433.2 168.5 431.6 170 431.2C171.5 430.8 173.1 431.8 173.5 433.3C173.9 434.8 173 436.4 171.4 436.8Z" fill="white"/>
<path opacity="0.35" d="M197.8 430.2C196.3 430.6 194.7 429.6 194.3 428.1C193.9 426.6 194.9 425 196.4 424.6C197.9 424.2 199.5 425.2 199.9 426.7C200.2 428.3 199.3 429.8 197.8 430.2Z" fill="white"/>
<path opacity="0.35" d="M224.1 423.6C222.6 424 221 423 220.6 421.5C220.2 420 221.2 418.4 222.7 418C224.2 417.6 225.8 418.6 226.2 420.1C226.6 421.7 225.6 423.2 224.1 423.6Z" fill="white"/>
<path opacity="0.35" d="M250.4 417.1C248.9 417.5 247.3 416.5 246.9 415C246.5 413.5 247.5 411.9 249 411.5C250.5 411.1 252.1 412.1 252.5 413.6C252.9 415.1 251.9 416.7 250.4 417.1Z" fill="white"/>
<path opacity="0.35" d="M278.308 409.502C279.282 408.231 279.04 406.41 277.768 405.437C276.496 404.463 274.676 404.705 273.702 405.977C272.729 407.249 272.971 409.069 274.243 410.043C275.515 411.016 277.335 410.774 278.308 409.502Z" fill="white"/>
<path opacity="0.35" d="M303 403.9C301.5 404.3 299.9 403.3 299.5 401.8C299.1 400.3 300.1 398.7 301.6 398.3C303.1 397.9 304.7 398.9 305.1 400.4C305.5 402 304.6 403.5 303 403.9Z" fill="white"/>
<path opacity="0.35" d="M150.5 464.9C149 465.3 147.4 464.3 147 462.8C146.6 461.3 147.6 459.7 149.1 459.3C150.6 458.9 152.2 459.9 152.6 461.4C153 463 152 464.6 150.5 464.9Z" fill="white"/>
<path opacity="0.35" d="M176.8 458.4C175.3 458.8 173.7 457.8 173.3 456.3C172.9 454.8 173.9 453.2 175.4 452.8C176.9 452.4 178.5 453.4 178.9 454.9C179.3 456.4 178.4 458 176.8 458.4Z" fill="white"/>
<path opacity="0.35" d="M203.1 451.8C201.6 452.2 200 451.2 199.6 449.7C199.2 448.2 200.2 446.6 201.7 446.2C203.2 445.8 204.8 446.8 205.2 448.3C205.6 449.9 204.7 451.4 203.1 451.8Z" fill="white"/>
<path opacity="0.35" d="M229.5 445.2C228 445.6 226.4 444.6 226 443.1C225.6 441.6 226.6 440 228.1 439.6C229.6 439.2 231.2 440.2 231.6 441.7C231.9 443.3 231 444.9 229.5 445.2Z" fill="white"/>
<path opacity="0.35" d="M255.8 438.7C254.3 439.1 252.7 438.1 252.3 436.6C251.9 435.1 252.9 433.5 254.4 433.1C255.9 432.7 257.5 433.7 257.9 435.2C258.3 436.7 257.3 438.3 255.8 438.7Z" fill="white"/>
<path opacity="0.35" d="M282.1 432.1C280.6 432.5 279 431.5 278.6 430C278.2 428.5 279.2 426.9 280.7 426.5C282.2 426.1 283.8 427.1 284.2 428.6C284.6 430.2 283.7 431.7 282.1 432.1Z" fill="white"/>
<path opacity="0.35" d="M308.4 425.5C306.9 425.9 305.3 424.9 304.9 423.4C304.5 421.9 305.5 420.3 307 419.9C308.5 419.5 310.1 420.5 310.5 422C310.9 423.6 310 425.2 308.4 425.5Z" fill="white"/>
<path opacity="0.35" d="M155.9 486.5C154.4 486.9 152.8 485.9 152.4 484.4C152 482.9 153 481.3 154.5 480.9C156 480.5 157.6 481.5 158 483C158.4 484.6 157.4 486.2 155.9 486.5Z" fill="white"/>
<path opacity="0.35" d="M182.2 480C180.7 480.4 179.1 479.4 178.7 477.9C178.3 476.4 179.3 474.8 180.8 474.4C182.3 474 183.9 475 184.3 476.5C184.7 478 183.8 479.6 182.2 480Z" fill="white"/>
<path opacity="0.35" d="M208.5 473.4C207 473.8 205.4 472.8 205 471.3C204.6 469.8 205.6 468.2 207.1 467.8C208.6 467.4 210.2 468.4 210.6 469.9C211 471.5 210.1 473 208.5 473.4Z" fill="white"/>
<path opacity="0.35" d="M234.9 466.9C233.4 467.3 231.8 466.3 231.4 464.8C231 463.3 232 461.7 233.5 461.3C235 460.9 236.6 461.9 237 463.4C237.3 464.9 236.4 466.5 234.9 466.9Z" fill="white"/>
<path opacity="0.35" d="M261.2 460.3C259.7 460.7 258.1 459.7 257.7 458.2C257.3 456.7 258.3 455.1 259.8 454.7C261.3 454.3 262.9 455.3 263.3 456.8C263.7 458.3 262.7 459.9 261.2 460.3Z" fill="white"/>
<path opacity="0.35" d="M289.259 452.388C290.078 451.012 289.627 449.232 288.251 448.413C286.875 447.593 285.095 448.045 284.276 449.421C283.456 450.797 283.907 452.577 285.284 453.396C286.66 454.215 288.439 453.764 289.259 452.388Z" fill="white"/>
<path opacity="0.35" d="M313.8 447.2C312.3 447.6 310.7 446.6 310.3 445.1C309.9 443.6 310.9 442 312.4 441.6C313.9 441.2 315.5 442.2 315.9 443.7C316.3 445.2 315.4 446.8 313.8 447.2Z" fill="white"/>
<path opacity="0.35" d="M161.3 508.2C159.8 508.6 158.2 507.6 157.8 506.1C157.4 504.6 158.4 503 159.9 502.6C161.4 502.2 163 503.2 163.4 504.7C163.8 506.2 162.8 507.8 161.3 508.2Z" fill="white"/>
<path opacity="0.35" d="M187.6 501.6C186.1 502 184.5 501 184.1 499.5C183.7 498 184.7 496.4 186.2 496C187.7 495.6 189.3 496.6 189.7 498.1C190.1 499.6 189.1 501.2 187.6 501.6Z" fill="white"/>
<path opacity="0.35" d="M213.2 495.1C214.802 495.1 216.1 493.802 216.1 492.2C216.1 490.598 214.802 489.3 213.2 489.3C211.598 489.3 210.3 490.598 210.3 492.2C210.3 493.802 211.598 495.1 213.2 495.1Z" fill="white"/>
<path opacity="0.35" d="M240.2 488.5C238.7 488.9 237.1 487.9 236.7 486.4C236.3 484.9 237.3 483.3 238.8 482.9C240.3 482.5 241.9 483.5 242.3 485C242.7 486.5 241.8 488.1 240.2 488.5Z" fill="white"/>
<path opacity="0.35" d="M268.365 480.549C269.185 479.173 268.733 477.393 267.357 476.574C265.981 475.755 264.201 476.206 263.382 477.582C262.562 478.958 263.014 480.738 264.39 481.557C265.766 482.377 267.546 481.925 268.365 480.549Z" fill="white"/>
<path opacity="0.35" d="M292.9 475.3C291.4 475.7 289.8 474.7 289.4 473.2C289 471.7 290 470.1 291.5 469.7C293 469.3 294.6 470.3 295 471.8C295.4 473.4 294.4 474.9 292.9 475.3Z" fill="white"/>
<path opacity="0.35" d="M319.2 468.8C317.7 469.2 316.1 468.2 315.7 466.7C315.3 465.2 316.3 463.6 317.8 463.2C319.3 462.8 320.9 463.8 321.3 465.3C321.7 466.8 320.8 468.4 319.2 468.8Z" fill="white"/>
</g>
<path d="M54.4 248.3C54.4 248.3 53.4 292 50.7 307C47.7 323.8 22.7 357.7 22.7 357.7L28.5 363.4L37.0999 367.5C37.0999 367.5 59 346.6 71.3 320.4C82 297.7 82.5 250.6 82.5 250.6" fill="#F777BA"/>
<path d="M48.2 381.5C48.5 380.5 48.6 379.2 48.2 378.6L39.3 365.5C30.8 363.9 23.3 356.2 23.3 356.2L15.8 364.5C15.6 364.8 15.7 365.2 16 365.4L46 384.3C46.7 384.7 48.2 381.5 48.2 381.5Z" fill="#00276F"/>
<path d="M41.6 367.7C40.3 368.2 39.1 368.8 38 369.5" stroke="#1A3987" stroke-width="0.75" stroke-miterlimit="10" stroke-linejoin="round"/>
<path d="M42.6 369.7C41.3 370.2 40.6 370.6 39.6 371.3" stroke="#1A3987" stroke-width="0.75" stroke-miterlimit="10" stroke-linejoin="round"/>
<path d="M43.4 371.2C42.5 371.5 41.5 372.1 40.6 372.6" stroke="#1A3987" stroke-width="0.75" stroke-miterlimit="10" stroke-linejoin="round"/>
<path d="M16.9 363.2L47.7 382.5" stroke="#1A3987" stroke-width="0.75" stroke-miterlimit="10" stroke-linejoin="round"/>
<path d="M20.7 359.2C20.7 359.2 27.8 363.9 25.7 368.7" stroke="#1A3987" stroke-width="0.75" stroke-miterlimit="10" stroke-linejoin="round"/>
<path d="M46.4 376C46.4 376 42.6 377.6 41.4 378.6" stroke="#1A3987" stroke-width="0.75" stroke-miterlimit="10" stroke-linejoin="round"/>
<path d="M86.5 266.5C86.5 266.5 88.2 292 89.3 311.6C90.5 331.1 92.7 375.7 92.7 375.7L101.2 377.7L110.6 376.1C110.6 376.1 113 337.6 113 312.1C113 285.7 112 248.3 112 248.3" fill="#F777BA"/>
<path d="M127.2 383C126.9 382 126.3 380.8 125.7 380.6L111.1 374.3C103.1 377.6 92.7 375.1 92.7 375.1L90.8 386.1C90.8 386.5 91.1 386.8 91.5 386.8L127 386.6C127.7 386.5 127.2 383 127.2 383Z" fill="#00276F"/>
<path d="M114.3 374.9C113.5 376 112.8 377.1 112.2 378.4" stroke="#1A3987" stroke-width="0.75" stroke-miterlimit="10" stroke-linejoin="round"/>
<path d="M116.1 376C115.3 377.2 114.9 377.8 114.4 378.9" stroke="#1A3987" stroke-width="0.75" stroke-miterlimit="10" stroke-linejoin="round"/>
<path d="M117.7 376.8C117.1 377.6 116.6 378.6 116.1 379.5" stroke="#1A3987" stroke-width="0.75" stroke-miterlimit="10" stroke-linejoin="round"/>
<path d="M91 384.3L127.4 384.1" stroke="#1A3987" stroke-width="0.75" stroke-miterlimit="10" stroke-linejoin="round"/>
<path d="M92 378.9C92 378.9 100.5 379.1 101.3 384.2" stroke="#1A3987" stroke-width="0.75" stroke-miterlimit="10" stroke-linejoin="round"/>
<path d="M122.7 379.3C122.7 379.3 120.3 382.6 119.9 384.2" stroke="#1A3987" stroke-width="0.75" stroke-miterlimit="10" stroke-linejoin="round"/>
<path d="M85.9 122C81.3 121 77 124 74.9 127.2C74.3 128.2 73.8 129.3 73 130.3C68.4 136.3 50 134.5 53.7 146.4C54.1 147.8 54.9 149 55 150.5C55.1 152.3 54.2 154 53.7 155.7C52.1 161.3 56 167.8 61.7 169C64.2 169.5 67.1 169.2 69.3 170.6C71.4 171.9 72.3 174.4 73.7 176.3C77.7 181.6 85.6 182.7 91.8 180.4C94.2 179.5 96.5 178.1 97.5 175.8C98.1 174.5 98.2 173 98.9 171.8C100.3 169.4 103.5 169.1 105.9 167.7C109.3 165.7 111.4 161.1 109.8 157.4C108.2 153.6 104.8 150.1 104 146C103.6 143.7 104.2 141.3 103.7 139.1C103.4 137.4 102.4 135.9 101.1 134.8C100.2 134.1 99.1 133.6 98.2 132.8C96.3 131.2 96 128.4 94 126.8C92 125.2 89.4 124.6 87.3 123.3" fill="#FFE1AD"/>
<path d="M94.3 150.1C105.9 146.9 123 147.5 136.6 134.1C150.2 120.6 156 110.4 156 110.4L166.5 118.7C166.5 118.7 152.7 145.1 140.5 154C124.4 165.7 113.4 167.5 104.1 169.2" fill="#F777BA"/>
<path d="M153.1 114.7C156 110.3 162.9 97.7 163.9 97.9C164.9 98 162.6 102.4 163.5 102.4C164.3 102.4 168.2 95.8 169.1 96.2C170.4 96.7 166 103.2 166 103.2C166 103.2 167.1 102 168.1 102.8C168.8 103.4 168 105.3 168 105.3C168 105.3 169.3 104 170 104.6C170.7 105.2 169.8 107.5 169.8 107.5C169.8 107.5 170.8 107 171.4 107.5C172.1 108 168.7 115.8 162.3 126" fill="#F777BA"/>
<path d="M162.5 104.1C162.5 104.1 162.3 106.4 162.5 107.9C162.8 110.4 162 111.7 162 111.7" stroke="#CC328A" stroke-width="0.75" stroke-miterlimit="10" stroke-linejoin="round"/>
<path d="M165.6 103.8C165.3 104.5 165.1 105.3 164.8 106C164.7 106.4 164.6 106.8 164.5 107.1C164.4 107.5 164.4 107.9 164.4 108.2C164.5 108.4 164.5 108.4 164.6 108.4C164.7 108.4 164.9 108.3 165 108.3C165.3 108.1 165.6 107.9 165.8 107.6C166.3 107 166.8 106.5 167.3 105.8C167.4 105.7 167.6 105.6 167.8 105.7C167.9 105.8 168 106 167.9 106.1C167.5 106.8 167.2 107.5 166.9 108.2C166.8 108.6 166.6 108.9 166.5 109.3C166.4 109.6 166.3 110 166.4 110.3C166.4 110.4 166.4 110.4 166.5 110.4C166.6 110.4 166.7 110.4 166.9 110.3C167.2 110.2 167.5 109.9 167.7 109.7C168.2 109.2 168.7 108.5 169 107.9C169.1 107.7 169.3 107.7 169.4 107.8C169.5 107.9 169.6 108.1 169.5 108.2C169.2 108.8 168.9 109.5 168.6 110.1C168.3 110.7 168.1 111.4 168 112.1C168 112.3 168 112.4 168 112.5C168 112.6 168.1 112.6 168.2 112.6C168.5 112.5 168.8 112.3 169 112.1C169.5 111.6 170 111.1 170.4 110.5C170.1 111.1 169.7 111.7 169.2 112.3C168.9 112.6 168.7 112.8 168.3 113C168.2 113 168.1 113 167.9 113C167.8 113 167.6 112.9 167.6 112.7C167.5 112.5 167.5 112.3 167.5 112.1C167.6 111.3 167.8 110.6 168 110C168.2 109.3 168.5 108.7 168.8 108L169.4 108.3C169 109 168.6 109.7 168 110.3C167.7 110.6 167.4 110.9 167 111.1C166.8 111.2 166.5 111.3 166.2 111.3C166.1 111.3 165.9 111.2 165.7 111.1C165.6 111 165.5 110.8 165.5 110.7C165.4 110.2 165.5 109.8 165.7 109.4C165.8 109 166 108.6 166.1 108.3C166.4 107.6 166.8 106.9 167.2 106.2L167.8 106.6C167.3 107.2 166.8 107.9 166.2 108.4C165.9 108.7 165.6 108.9 165.2 109.1C165 109.2 164.8 109.3 164.5 109.3C164.4 109.3 164.2 109.2 164.1 109.1C164 109 164 108.8 163.9 108.7C163.8 107.8 164.2 107.1 164.4 106.3C164.9 105.2 165.2 104.5 165.6 103.8Z" fill="#CC328A"/>
<path d="M83.2 123C82.7 122.7 81.9 122.8 81.5 122.4C80.7 121.7 80.7 120.5 81 119.6C81.5 118.1 83.4 117.5 84.8 117.7C88.2 118.2 87.7 121.5 85.6 122.7" fill="#FFE1AD"/>
<path d="M64.3 206.1C64.3 206.1 52 219.2 49.7 237C47.4 254.8 47.3 283.9 47.3 283.9C47.3 283.9 82.7 290.4 114.8 283.2C113.6 268.4 114.8 226.9 103.6 206.1" fill="#2A2A68"/>
<path d="M53.8 284.9C53.8 284.9 52.7 240.1 57.9 225C62 213.1 70.9 201.7 70.9 201.7" stroke="#5565AA" stroke-width="0.75" stroke-miterlimit="10"/>
<path d="M115.3 146.8L119.5 166.8C119.5 166.8 111.3 170.1 102.8 170.6C98.2 170.5 91.3 152.7 93.9 149.3C101.6 147 115.3 146.8 115.3 146.8Z" fill="#7482FF"/>
<path d="M63.4 169.2C63.4 169.2 62.8 192.6 64.2 206.1C83.9 210.5 103.5 206.1 103.5 206.1L104.9 184.8C114.8 174.7 106.1 161.6 106.1 161.6L93.9 149.2L81.7 148.5L63.4 169.2Z" fill="#7482FF"/>
<path d="M81.7 148.6C81.7 148.6 70.8 146.9 60.4 155.5C58 157.4 55.1 161.5 52.7 166.4L69.6 177.5L79.6 166.4" fill="#7482FF"/>
<path d="M109.3 169.7C108.5 166.6 106.2 161.6 106.2 158.6L109.3 169.7Z" fill="#7482FF"/>
<path d="M94.9 126.9C94.9 126.9 99.4 138.6 96 142.1C94.3 143.9 88.2 142.9 85.9 141.2C84.2 139.9 82 132.1 82.9 130.7C86.3 125 94.9 126.9 94.9 126.9Z" fill="#F777BA"/>
<path d="M82.2 137.1L81.7 148.6C82.6 151.5 92.4 154.2 93.9 149.3L92.9 140.7L82.2 137.1Z" fill="#F777BA"/>
<path d="M77 135.8C76.6 134.7 76.5 133.5 76.5 132.4C76.5 130.9 76.7 129.5 77.2 128.1C78 125.8 79.8 123.8 82.1 122.7C84.4 121.6 88.7 120.6 92.2 122.7C94 122.5 95.9 123 97.2 124.2C98.5 125.4 99.2 127.4 98.7 129.1C95.4 128.7 92.1 128.3 88.7 128C88 129.8 86.8 131.4 85.2 132.5C83.7 133.6 82 134.9 82.6 137C82.9 137.9 81.9 138.1 81.9 139.8C80.1 139.6 77.5 137.1 77.1 136C77.1 135.9 77 135.8 77 135.8Z" fill="#FFE1AD"/>
<path d="M83.7 135.3C82.6 133.7 81.6 133.8 81 134.6C80.2 135.6 81.4 138.1 82 138.6C83.3 139.5 84.4 139.5 84.6 138.5" fill="#F777BA"/>
<path d="M93.2 143.4C88.9 143.6 85.8 141.2 85.8 141.2" stroke="#CC328A" stroke-width="0.75" stroke-miterlimit="10" stroke-linejoin="round"/>
<path d="M92.4 132.8C92.4 132.8 95.3 135.3 95.2 136.1C95.1 136.9 93.3 137.2 93.3 137.2" stroke="#CC328A" stroke-width="0.5" stroke-miterlimit="10" stroke-linejoin="round"/>
<path d="M95.4 137.8L90.6 139.1C90.6 139.1 91.9 141.5 94.5 140.6C96.3 140 95.4 137.8 95.4 137.8Z" fill="white"/>
<path d="M94.4 131.8C94.4 131.9 94.4 131.9 94.4 132C94.4 132.1 94.4 132.1 94.5 132.2C94.5 132.3 94.6 132.5 94.7 132.6L94.8 132.7L94.9 132.8H95C95.1 132.8 95.1 132.8 95.2 132.8C95.2 132.8 95.3 132.8 95.3 132.7L95.4 132.6C95.4 132.5 95.5 132.4 95.4 132.3C95.4 132.2 95.3 132.1 95.3 132.1C95.3 132 95.2 132 95.2 131.9C95.2 131.8 95.1 131.8 95.1 131.7L95 131.6C95 131.5 94.9 131.5 94.8 131.4C94.7 131.4 94.6 131.4 94.6 131.4C94.5 131.4 94.5 131.5 94.4 131.5C94.4 131.7 94.4 131.8 94.4 131.8Z" fill="#00276F"/>
<path d="M93.3 130.7C93.3 130.7 93.9 129.6 95.1 130.2" stroke="#00276F" stroke-width="0.5" stroke-miterlimit="10" stroke-linecap="round" stroke-linejoin="round"/>
<path d="M89 133.9C89 134 89 134 89 134.1C89 134.2 89 134.2 89 134.3C89 134.4 89.1 134.5 89.1 134.6C89.1 134.7 89.1 134.7 89.2 134.7L89.3 134.8C89.4 134.8 89.5 134.9 89.6 134.8C89.7 134.8 89.8 134.7 89.8 134.6C89.8 134.5 89.9 134.4 89.8 134.3C89.8 134.2 89.7 134 89.6 133.9C89.6 133.8 89.6 133.8 89.5 133.7C89.5 133.6 89.4 133.6 89.4 133.5C89.4 133.4 89.3 133.4 89.2 133.3C89.1 133.3 89 133.3 89 133.3C88.9 133.3 88.9 133.4 88.8 133.4V133.5C89 133.8 89 133.8 89 133.9Z" fill="#00276F"/>
<path d="M89.6 131.7C89.6 131.7 88.3 131.4 87.3 133" stroke="#00276F" stroke-width="0.5" stroke-miterlimit="10" stroke-linecap="round" stroke-linejoin="round"/>
<path d="M52.6 166.4C47.3 177 44.1 192.5 55.2 197.3C66.8 202.2 97.2 165 97.2 165L87.8 156.9L62.7 173" fill="#F777BA"/>
<path d="M62.7 173L55.2 178.9" stroke="#CC328A" stroke-width="0.75" stroke-miterlimit="10" stroke-linejoin="round"/>
<path d="M97.3 160C95.8 159.7 94.8 158.3 95.1 156.7L97.1 145.9L102.6 146.9L100.6 157.7C100.3 159.3 98.8 160.3 97.3 160Z" fill="#2A2A68"/>
<path d="M103.4 149.3L99 148.2C95.9 147.4 93.9 144.3 94.7 141.1C95.5 138 98.6 136 101.8 136.8L106.2 137.9C106.5 138 106.6 138.2 106.6 138.5L104 149C103.9 149.2 103.7 149.4 103.4 149.3Z" fill="#4376CF"/>
<path d="M106.7 144.1C105.9 147.2 104.5 149.6 103.4 149.3C102.3 149 102.1 146.3 102.9 143.2C103.7 140.1 105.1 137.7 106.2 138C107.2 138.2 107.5 141 106.7 144.1Z" fill="#9CD0FF"/>
<path d="M117.1 159.1C117.1 159.1 109 152.2 104.2 149.3C102.7 148.1 103.2 145.2 103.6 143.6C104.7 139.5 106.1 139 106.1 139C112.6 139.5 122.8 136.4 122.8 136.4" fill="#2A2A68"/>
<path d="M117.7 146.8C115.9 153.9 116.1 160 118.1 160.5C120.1 161 123.2 155.7 125 148.6C126.8 141.5 126.6 135.4 124.6 134.9C122.6 134.4 119.4 139.7 117.7 146.8Z" fill="#9CD0FF"/>
<path d="M118.9 147.1C117.4 153.1 117.4 158.2 118.9 158.6C120.4 159 122.9 154.4 124.4 148.5C125.9 142.5 125.9 137.4 124.4 137C122.8 136.6 120.4 141.1 118.9 147.1Z" fill="#4376CF"/>
<path d="M121.5 150.5C120.1 150.2 118.9 150.3 118.1 150.4C118.3 149.3 118.5 148.2 118.8 147.1C119.1 145.9 119.4 144.8 119.8 143.8C120.4 144.3 121.4 145 122.8 145.3L121.5 150.5Z" fill="#2A2A68"/>
<path d="M121.5 147.7C121.1 149.1 121.2 150.4 121.5 150.5C121.9 150.6 122.5 149.5 122.9 148.1C123.3 146.7 123.2 145.4 122.9 145.3C122.4 145.2 121.8 146.3 121.5 147.7Z" fill="#FFE1AD"/>
<path d="M83.3 159.8C89.6 155.7 94 153.3 94.7 153C97.2 151.9 99.9 152.3 101.9 153.1C102.6 153.4 103.2 153.8 103.6 154.3C104.1 155 104.4 155.9 104.3 156.8C104.3 157 104.3 157.1 104.1 157.2C103.8 157.4 103.5 156.9 103.3 156.6C102.8 155.8 102 155.4 101 155.4C101.5 155.4 101.7 155.9 101.9 156.3C102.1 156.7 101.9 157.4 101.4 157.4C101.8 157.5 102.2 157.9 102.3 158.3C102.4 158.7 102.1 159.2 101.7 159.4C102 159.5 102.2 159.9 102.1 160.2C102.1 160.5 101.9 160.8 101.7 161C100.8 162.1 99.8 163.1 98.7 164C95.3 166.9 88.4 174.8 88.4 174.8" fill="#F777BA"/>
<path d="M121.5 381.4L93.2 379.3L83.9 380.3L84.1 415.5C84.1 416.4 84.8 417.1 85.7 417.1C86.4 417.1 87 416.7 87.2 416.1L94.4 400.4L123.9 403.9" fill="#F777BA"/>
<path d="M84.5 418.6C85.7 418.2 87 417.5 87.3 416.9L94.5 400.2C90.8 391 93.6 379.1 93.6 379.1L81 378.3C80.6 378.3 80.3 378.6 80.3 379.1L80.5 418.4C80.5 419.2 84.4 418.6 84.5 418.6Z" fill="#2E7EFA"/>
<path d="M93.7 403.8C92.5 402.9 91.2 402.1 89.8 401.5" stroke="#1A3987" stroke-width="0.75" stroke-miterlimit="10" stroke-linejoin="round"/>
<path d="M92.5 405.9C91.2 404.9 90.4 404.5 89.1 404" stroke="#1A3987" stroke-width="0.75" stroke-miterlimit="10" stroke-linejoin="round"/>
<path d="M91.5 407.7C90.6 407 89.4 406.4 88.4 405.9" stroke="#1A3987" stroke-width="0.75" stroke-miterlimit="10" stroke-linejoin="round"/>
<path d="M83 378.5L83.2 418.8" stroke="#1A3987" stroke-width="0.75" stroke-miterlimit="10" stroke-linejoin="round"/>
<path d="M89 378.8C89 378.8 88.9 388.1 83.1 389" stroke="#1A3987" stroke-width="0.75" stroke-miterlimit="10" stroke-linejoin="round"/>
<path d="M88.7 413.5C88.7 413.5 84.9 410.8 83.1 410.3" stroke="#1A3987" stroke-width="0.75" stroke-miterlimit="10" stroke-linejoin="round"/>
<path d="M171 323.3C171.4 324.2 176.7 361.5 180.5 387.6C182.9 403.9 183.2 414.2 159.4 412.3C126.7 409.6 103.9 408.1 103.9 408.1L103.1 378.8L148 380.9L142.1 351.9C142.1 351.9 131.2 337.4 139.2 320.8" fill="#816FC2"/>
<path d="M107.9 379L109.1 408.1" stroke="#4C3F89" stroke-width="0.75" stroke-miterlimit="10"/>
<path d="M163.1 342.6L171 388.5C171.2 389.8 170.1 390.8 168.9 390.8L103.3 386.8" stroke="#4C3F89" stroke-width="0.75" stroke-miterlimit="10"/>
<path d="M204.9 377.6L198.9 405.9L198.7 415.2L235.1 415C236 415 236.7 414.3 236.7 413.4C236.7 412.7 236.3 412.1 235.7 411.9L220 404.7L227.4 375.2" fill="#F777BA"/>
<path d="M238.3 414.6C237.9 413.4 237.2 412.1 236.6 411.8L219.9 404.6C210.7 408.3 198.8 405.5 198.8 405.5L196.7 418C196.7 418.4 197 418.7 197.5 418.7L238.1 418.5C238.8 418.6 238.3 414.6 238.3 414.6Z" fill="#2E7EFA"/>
<path d="M223.5 405.4C222.6 406.6 221.8 407.9 221.2 409.3" stroke="#1A3987" stroke-width="0.75" stroke-miterlimit="10" stroke-linejoin="round"/>
<path d="M225.6 406.6C224.6 407.9 224.2 408.7 223.7 410" stroke="#1A3987" stroke-width="0.75" stroke-miterlimit="10" stroke-linejoin="round"/>
<path d="M227.3 407.5C226.6 408.4 226 409.6 225.5 410.6" stroke="#1A3987" stroke-width="0.75" stroke-miterlimit="10" stroke-linejoin="round"/>
<path d="M196.9 416.1L238.4 415.9" stroke="#1A3987" stroke-width="0.75" stroke-miterlimit="10" stroke-linejoin="round"/>
<path d="M198.1 410C198.1 410 207.9 410.2 208.7 416.1" stroke="#1A3987" stroke-width="0.75" stroke-miterlimit="10" stroke-linejoin="round"/>
<path d="M233.1 410.4C233.1 410.4 230.4 414.2 229.9 416" stroke="#1A3987" stroke-width="0.75" stroke-miterlimit="10" stroke-linejoin="round"/>
<path d="M186.1 314.7L188.2 322.9C188.5 324.1 189.5 324.9 190.8 324.9H219C225.9 324.9 233.2 325.1 237.1 331.1C240.3 336 239.2 344.2 236.5 353.6C234.2 361.7 226 398.3 226 398.3H197L205.2 354.5H171.7C171.7 354.5 150 354.7 153 333" fill="#816FC2"/>
<path d="M197.8 393.7H226.8" stroke="#4C3F89" stroke-width="0.75" stroke-miterlimit="10"/>
<path d="M175.7 354.4H171.7C171.7 354.4 150.9 354.4 150.7 332.9" stroke="#4C3F89" stroke-width="0.75" stroke-miterlimit="10"/>
<path d="M173.4 321.7C173.4 321.7 173.9 346 194.4 346H209.8C211.7 346 213.1 347.8 212.7 349.6L202.6 398.1" stroke="#4C3F89" stroke-width="0.75" stroke-miterlimit="10"/>
<path d="M175.4 331.8C175.6 332.2 184 329.9 183.8 321.7" stroke="#4C3F89" stroke-width="0.75" stroke-miterlimit="10"/>
<path d="M157.7 335.2C157.7 335.2 162.1 335.2 166.1 334" stroke="#4C3F89" stroke-width="0.75" stroke-miterlimit="10"/>
<path d="M136.4 335.2C136.4 335.2 140.5 335.3 143.6 335.2" stroke="#4C3F89" stroke-width="0.75" stroke-miterlimit="10"/>
<path d="M161.2 233.7C161.2 233.7 171.2 202.6 189.9 177.5L177.1 169.7C156.9 191.6 143.6 228.3 143.6 228.3" fill="#F777BA"/>
<path d="M135.8 286.6C135.8 286.6 131.6 248.2 147.5 215.9L166.2 222L161.3 246.6" fill="#FFE1AD"/>
<path d="M146 219.6L164.4 225.9" stroke="#D19B4B" stroke-width="0.75" stroke-miterlimit="10"/>
<path d="M187.2 181.1C190.2 176.5 201.1 164.6 200.6 163.6C200.1 162.6 196.2 166.7 195.9 165.8C195.6 164.9 201.2 158.1 200.4 157.3C199.3 156.1 194 163.4 194 163.4C194 163.4 199.4 155.2 198.2 154.4C197.3 153.9 192.9 160 190.9 162.1C192.8 159.5 195.3 155 194.4 154.5C193.5 154 190.4 158.1 187.8 161.1C189.2 159.1 191.6 155.3 190.8 154.7C190 154.2 179.6 165.2 171.4 176.4" fill="#F777BA"/>
<path d="M173.5 276.8C173.5 276.8 192.6 284.1 206.6 285C225 286.2 246.4 279.3 246.4 279.3C246.4 279.3 249.2 264.2 241.9 264.9C232.8 266.6 217.2 267.7 205.4 266.3C198 265.4 182.4 257 182.4 257" fill="#F777BA"/>
<path d="M237.8 265.8C243.3 265.1 258.7 260.4 259.4 261.3C260.1 262.2 254.6 263.9 255.3 264.6C256 265.2 264.5 263.2 264.9 264.2C265.5 265.7 256.6 267.3 256.6 267.3C256.6 267.3 266.4 266 266.5 267.4C266.6 268.4 259.2 269.8 256.4 270.7C259.5 270.1 264.7 269.8 264.8 270.8C264.9 271.8 259.8 272.9 256 273.9C258.4 273.5 262.9 273 263 274C263.1 275 251.1 278.3 239.6 281.1" fill="#F777BA"/>
<path d="M153.8 240.7L151.2 253.8C151.2 253.8 158.6 261.2 166.3 254.3L166.2 245.5L153.8 240.7Z" fill="#F777BA"/>
<path d="M167.7 228.4C167.7 228.4 174 241 170.1 245.1C168.1 247.3 165.1 248.1 162.5 246.1C160.5 244.6 152.9 235.6 154 233.9C157.9 227.3 167.7 228.4 167.7 228.4Z" fill="#F777BA"/>
<path d="M170.2 235.4C170.2 235.4 172.5 237.7 172.5 239.2C172.5 239.9 170.2 240 170.2 240" fill="#F777BA"/>
<path d="M170.1 241.3L166 240.7C165.8 242.3 168.9 246.1 170.1 241.3Z" fill="white"/>
<path d="M167.1 235.2C167.1 235.3 167.1 235.4 167.1 235.5C167.1 235.6 167.1 235.7 167.1 235.8C167.1 235.9 167.1 236 167.2 236C167.2 236 167.2 236.1 167.3 236.1L167.4 236.2C167.5 236.3 167.5 236.3 167.6 236.3C167.8 236.4 168 236.2 168 236.1C168 236 168 236 168 235.9V235.8C168 235.7 167.9 235.7 167.9 235.6V235.7C167.8 235.6 167.8 235.4 167.8 235.3V235.4C167.8 235.3 167.8 235.3 167.8 235.2V235.1C167.8 235 167.6 234.9 167.5 234.9C167.3 235 167.1 235.1 167.1 235.2Z" fill="#00276F"/>
<path d="M165.2 234.5C165.6 233.8 166.4 233.4 167.1 233.3C167.4 233.3 167.8 233.3 168.1 233.5" stroke="#00276F" stroke-width="0.5" stroke-miterlimit="10" stroke-linecap="round" stroke-linejoin="round"/>
<path d="M152.5 229.3C153.2 224.8 157.7 223.9 166.2 225.2C167.3 225.4 169.4 224.8 169.9 225.8C170.5 227.2 170.4 229.9 168.9 231C167.6 232 165.9 231.4 164.5 232C162.2 232.8 163.4 235 162.1 236.6C160.1 239.3 161.4 243.2 158.1 245.2C156.2 246.4 153.8 246 151.6 245.6C151.3 245.6 151.1 245.5 150.8 245.3C150.1 244.7 150.4 242.7 150.1 241.8C149.4 239 149 236 149.3 233.1C149.5 230.6 151.5 229 152.5 229.3Z" fill="#0B0B3A"/>
<path d="M162.1 237.2C161.7 234.6 159.7 235.5 159 236.4C158.1 237.6 159.5 240.5 160.2 241C161.7 242.1 162.9 242.1 163.2 240.8" fill="#F777BA"/>
<path d="M166 247.4C163.2 246.5 161.4 245.1 161.4 245.1" stroke="#CC328A" stroke-width="0.75" stroke-miterlimit="10" stroke-linejoin="round"/>
<path d="M151.1 249.9C151.1 249.9 139.7 254.7 136.2 272.8C134.6 280.8 137.6 323.9 137.6 323.9C162.3 328.7 188.9 321.6 188.9 321.6C188.9 321.6 185.9 293.5 184.5 282.9C181.3 258.5 164.5 250.7 164.5 250.7L151.1 249.9Z" fill="#FFE1AD"/>
<path d="M164.4 250.6C164.4 250.6 173.9 252.1 180 255C186.1 257.9 199.8 264.6 199.8 264.6L192.7 284.1L167.8 276.2" fill="#FFE1AD"/>
<path d="M184.2 281.1L170.2 277" stroke="#D19B4B" stroke-width="0.75" stroke-miterlimit="10"/>
<path d="M195.6 262.5L188.9 282.6" stroke="#D19B4B" stroke-width="0.75" stroke-miterlimit="10"/>
<path d="M137.4 320.8C137.4 320.8 161.5 324.4 188.5 318.9" stroke="#D19B4B" stroke-width="0.75" stroke-miterlimit="10"/>
<path d="M520.7 375L526.7 403.3L525.7 412.6L490.5 412.4C489.6 412.4 488.9 411.7 488.9 410.8C488.9 410.1 489.3 409.5 489.9 409.3L505.6 402.1L498.2 372.6" fill="#F777BA"/>
<path d="M487.3 412C487.7 410.8 488.4 409.5 489 409.2L505.7 402C514.9 405.7 526.8 402.9 526.8 402.9L527.7 415.4C527.7 415.8 527.4 416.1 526.9 416.1L487.6 415.9C486.8 416.1 487.3 412.1 487.3 412Z" fill="#18277A"/>
<path d="M502.1 402.8C503 404 503.8 405.3 504.4 406.7" stroke="#5565AA" stroke-width="0.75" stroke-miterlimit="10"/>
<path d="M500 404.1C501 405.4 501.4 406.2 501.9 407.5" stroke="#5565AA" stroke-width="0.75" stroke-miterlimit="10"/>
<path d="M498.3 405C499 405.9 499.6 407.1 500.1 408.1" stroke="#5565AA" stroke-width="0.75" stroke-miterlimit="10"/>
<path d="M527.5 413.6L487.2 413.3" stroke="#5565AA" stroke-width="0.75" stroke-miterlimit="10"/>
<path d="M527.1 407.6C527.1 407.6 517.8 407.7 516.9 413.5" stroke="#5565AA" stroke-width="0.75" stroke-miterlimit="10"/>
<path d="M492.5 407.8C492.5 407.8 495.2 411.6 495.7 413.4" stroke="#5565AA" stroke-width="0.75" stroke-miterlimit="10"/>
<path d="M508.1 272.2C508.1 272.2 485.6 322.6 486.8 340.4C487.9 357 500.5 399.1 500.5 399.1L527.5 394.1C527.5 394.1 514.6 342.1 515.3 336.7C516 331.3 532.5 294.3 532.5 294.3C532.5 294.3 538.9 285.6 536.7 270.6" fill="#2E7EFA"/>
<path d="M523 395C523 395 510.4 342.5 511.1 337.1C511.8 331.7 527.4 295.4 527.4 295.4" stroke="#1A3987" stroke-width="0.75" stroke-miterlimit="10" stroke-linejoin="round"/>
<path d="M526.3 389.2L499.2 394.7" stroke="#1A3987" stroke-width="0.75" stroke-miterlimit="10" stroke-linejoin="round"/>
<path d="M559.8 361.8L572.4 388.2L575.5 397L543.5 411.8C542.7 412.2 541.7 411.8 541.4 411C541.1 410.4 541.2 409.7 541.7 409.2L552.9 396L538.5 369.2" fill="#F777BA"/>
<path d="M540.4 412.7C540.2 411.5 540.3 410 540.8 409.4L552.8 395.8C562.7 395.3 572.3 387.7 572.3 387.7L578.4 398.7C578.6 399.1 578.4 399.5 578 399.7L542.3 416.2C541.6 416.6 540.4 412.8 540.4 412.7Z" fill="#18277A"/>
<path d="M549.9 398.1C551.3 398.8 552.5 399.7 553.7 400.7" stroke="#5565AA" stroke-width="0.75" stroke-miterlimit="10"/>
<path d="M548.5 400.1C549.9 400.9 550.6 401.4 551.7 402.3" stroke="#5565AA" stroke-width="0.75" stroke-miterlimit="10"/>
<path d="M547.3 401.7C548.3 402.2 549.4 403.1 550.2 403.7" stroke="#5565AA" stroke-width="0.75" stroke-miterlimit="10"/>
<path d="M577.4 397.1L540.8 414" stroke="#5565AA" stroke-width="0.75" stroke-miterlimit="10"/>
<path d="M574.6 391.8C574.6 391.8 566.2 395.8 567.9 401.5" stroke="#5565AA" stroke-width="0.75" stroke-miterlimit="10"/>
<path d="M543.3 406.7C543.3 406.7 547.4 409 548.6 410.4" stroke="#5565AA" stroke-width="0.75" stroke-miterlimit="10"/>
<path d="M525.9 273.7C525.9 273.7 517.3 321.3 521.4 338.7C525.9 358.2 545.5 391.2 545.5 391.2L569.9 379.1C569.9 379.1 548.9 339 548.9 330.3C548.9 324.9 553.7 291.5 553.7 291.5C553.7 291.5 558.5 281.8 553.8 267.4" fill="#2E7EFA"/>
<path d="M564.2 381.9C564.2 381.9 543.2 342.7 543.2 331.5C543.2 326.1 546.5 300.8 548 292.7C549.5 284.6 552.4 275.2 548.1 268.6" stroke="#1A3987" stroke-width="0.75" stroke-miterlimit="10" stroke-linejoin="round"/>
<path d="M520.3 322.5C521.6 309.1 523.1 291.2 525.1 275.2" stroke="#1A3987" stroke-width="0.75" stroke-miterlimit="10" stroke-linejoin="round"/>
<path d="M539.5 275.2C539.5 275.2 541.2 279.3 550.1 281.7" stroke="#1A3987" stroke-width="0.75" stroke-miterlimit="10" stroke-linejoin="round"/>
<path d="M521.3 276.2C521.3 276.2 520 286 520.7 287.3C521.1 287.9 523.9 288.4 523.9 288.4" stroke="#1A3987" stroke-width="0.75" stroke-miterlimit="10" stroke-linejoin="round"/>
<path d="M504.7 280C504.7 280 510.1 280.1 513.2 276.7" stroke="#1A3987" stroke-width="0.75" stroke-miterlimit="10" stroke-linejoin="round"/>
<path d="M567.6 374.9L543 386.8" stroke="#1A3987" stroke-width="0.75" stroke-miterlimit="10" stroke-linejoin="round"/>
<path d="M515.6 200.7C515.6 200.7 505.4 203.6 503.9 223.3C502.5 231.4 505.9 276.1 505.9 276.1C530.7 280.4 557.1 272.7 557.1 272.7C557.1 272.7 552.5 244.7 550.7 234.1C546.3 207.6 528 202 528 202L515.6 200.7Z" fill="#18277A"/>
<path d="M519.9 200.9C519.9 200.9 513.9 190.3 504.5 179.8C492.2 166.1 473.6 154.6 473.6 154.6C473.6 154.6 461 163.4 466.8 168.1C474.4 173.3 484.2 183.5 491.6 192.8C496.2 198.6 505.6 216.3 505.6 216.3" fill="#F777BA"/>
<path d="M470.3 170.4C465.9 167.1 451.5 159.7 451.7 158.5C451.9 157.4 456.9 159.9 456.9 159C456.9 158.1 449.3 153.6 449.8 152.5C450.4 151 457.9 156 457.9 156C457.9 156 450 150.1 450.9 149C451.5 148.2 457.8 152.4 460.4 153.7C457.8 151.9 453.8 148.6 454.5 147.8C455.2 147 459.5 149.8 462.9 151.7C460.9 150.3 457.3 147.5 457.9 146.7C458.5 145.9 469.5 151.5 479.9 158.7" fill="#F777BA"/>
<path d="M538.7 233.6C538.7 233.6 529.5 251.9 519.7 262C506.9 275.3 486.5 284.6 486.5 284.6C486.5 284.6 474.2 275.3 480.2 270.9C488 266 500.4 256.3 508.1 247.3C512.9 241.7 520.7 224.1 520.7 224.1" fill="#F777BA"/>
<path d="M483.8 268.7C479.3 271.8 464.7 278.8 464.8 279.9C464.9 281 470.1 278.6 470 279.6C469.9 280.5 462.2 284.7 462.6 285.8C463.2 287.3 470.8 282.6 470.8 282.6C470.8 282.6 462.7 288.2 463.5 289.3C464.1 290.1 470.5 286.1 473.1 284.9C470.4 286.6 466.4 289.8 467 290.6C467.6 291.4 472.1 288.8 475.6 287C473.5 288.3 469.9 291 470.5 291.8C471.1 292.6 482.2 287 492.6 281.3" fill="#F777BA"/>
<path d="M520.3 219.4C517.7 228 511 242.3 511 242.3L529.4 252C529.4 252 538.9 240.4 542.5 226.6" fill="#18277A"/>
<path d="M529.4 252C529.4 252 539.7 237.6 541.5 229.9" stroke="#5565AA" stroke-width="0.75" stroke-miterlimit="10"/>
<path d="M511 242.3C511 242.3 517.8 229.1 519.3 222.7" stroke="#5565AA" stroke-width="0.75" stroke-miterlimit="10"/>
<path d="M503.6 229.1C503.4 221.9 499.9 206.9 489.6 193.1L505.8 180.1C505.8 180.1 520.1 191.5 524.1 201.6" fill="#18277A"/>
<path d="M512.4 180C512.4 180 508.3 191.5 511.9 195.2C513.8 197.1 519.5 197.5 521.9 195.6C523.7 194.2 526.3 185.3 525.3 183.8C521.5 177.8 512.4 180 512.4 180Z" fill="#F777BA"/>
<path d="M514.7 185.4C514.7 185.4 512.5 188.1 512.6 188.9C512.7 189.7 514.6 190 514.6 190" stroke="#CC328A" stroke-width="0.5" stroke-miterlimit="10" stroke-linejoin="round"/>
<path d="M512.4 190.9L517.6 192.2C517.6 192.2 516.3 194.8 513.5 193.9C511.5 193.2 512.4 190.9 512.4 190.9Z" fill="white"/>
<path d="M512.7 184.2C512.7 184.3 512.6 184.3 512.6 184.4C512.6 184.5 512.5 184.5 512.5 184.6C512.4 184.7 512.4 184.9 512.3 185C512.3 185.1 512.3 185.1 512.3 185.2C512.3 185.3 512.3 185.3 512.3 185.3C512.3 185.3 512.3 185.4 512.4 185.4L512.5 185.5C512.6 185.5 512.7 185.5 512.8 185.5C512.9 185.5 513 185.4 513 185.3C513 185.2 513.1 185.1 513.1 185C513.1 184.9 513.1 184.9 513.2 184.8C513.2 184.7 513.2 184.7 513.3 184.6C513.3 184.5 513.3 184.5 513.3 184.4C513.3 184.2 513.3 184.1 513.1 184C512.9 184 512.8 184.1 512.7 184.2Z" fill="#00276F"/>
<path d="M514.5 183.2C514.5 183.2 513.8 182 512.5 182.7" stroke="#00276F" stroke-width="0.5" stroke-miterlimit="10" stroke-linecap="round" stroke-linejoin="round"/>
<path d="M518.5 186.3C518.5 186.4 518.4 186.5 518.4 186.5C518.4 186.6 518.4 186.6 518.3 186.7C518.3 186.8 518.2 186.9 518.2 187C518.2 187.1 518.2 187.2 518.2 187.3C518.2 187.4 518.3 187.5 518.4 187.5C518.5 187.5 518.6 187.5 518.7 187.5C518.7 187.5 518.8 187.5 518.8 187.4C518.8 187.4 518.9 187.3 518.9 187.2C518.9 187.1 519 187 519 186.9C519 186.8 519 186.8 519 186.7C519 186.6 519 186.6 519 186.5C519 186.4 519 186.3 519 186.2C519 186.1 518.9 186.1 518.8 186.1C518.7 186.1 518.6 186.1 518.6 186.1C518.6 186.1 518.6 186.2 518.5 186.3Z" fill="#00276F"/>
<path d="M518.5 184.3C518.5 184.3 519.8 184 521 185.7" stroke="#00276F" stroke-width="0.5" stroke-miterlimit="10" stroke-linecap="round" stroke-linejoin="round"/>
<path d="M525.7 190.5L528 202C528 202 519.3 208.5 514.5 201.6L514.4 194.1L525.7 190.5Z" fill="#F777BA"/>
<path d="M529.9 188.5C530 188.1 530.1 187.7 530.3 187.3C530.6 186.3 531.2 185.5 531.6 184.5C532.4 182.6 531.7 180.2 530.1 178.9C529.8 178.7 529.5 178.5 529.2 178.2C528.6 177.6 528.4 176.8 528.1 176C527.8 175.4 527.4 174.8 526.8 174.5C525.4 173.8 523.6 174.8 522.3 174C522 173.8 521.8 173.6 521.5 173.4C519.6 171.9 517.3 172.3 515.2 173C514.2 173.4 513.9 173.8 513.1 174.4C512.2 175.1 510.9 175.1 510 175.7C509 176.4 508.8 177.8 508.8 178.9C508.8 179.3 508.8 179.8 509 180.2C509.2 180.7 509.7 181.1 510.2 181.3C511.4 181.9 512.8 181.6 514.1 181.5C515.4 181.4 516.8 180.5 518.1 181C519.3 181.4 519.6 182.9 521.1 183C521.7 183 522.4 182.9 522.7 183.4C523.1 183.9 522.9 184.8 523.2 185.4C523.5 186 524 186.5 524.4 187C525.1 188.1 526.2 188.8 525.8 190.2C525.5 191.2 524.5 192.7 524.9 193.7C525.2 194.4 526.7 194.4 527.8 193.5C529 192.6 529.3 190.9 529.6 189.6C529.7 189.5 529.7 189 529.9 188.5Z" fill="#212237"/>
<path d="M524.6 188.8C525.7 187 526.8 187.2 527.4 188C528.3 189.1 527.1 191.8 526.4 192.3C525.1 193.3 523.9 193.4 523.6 192.2" fill="#F777BA"/>
<path d="M514.8 196.9C518.9 197 522.4 195.1 522.4 195.1" stroke="#CC328A" stroke-width="0.75" stroke-miterlimit="10" stroke-linejoin="round"/>
<path d="M503.4 226.5C503.4 226.5 503.7 215.3 502.4 211.8" stroke="#5565AA" stroke-width="0.75" stroke-miterlimit="10"/>
<path d="M513.4 203.7C513.4 203.7 515.4 207.3 521 207.1C527.3 207 529.8 202.8 529.8 202.8" stroke="#5565AA" stroke-width="0.75" stroke-miterlimit="10"/>
<path d="M404.6 144.2C404 149.5 400 161.8 400.8 162.3C401.6 162.8 403.4 158.1 404 158.6C404.6 159.1 402.5 166.3 403.4 166.6C404.6 167 406.3 159.9 406.3 159.9C406.3 159.9 405 167.7 406.1 167.8C406.9 167.9 408.4 162.2 409 160C408.6 162.4 408 166.3 408.9 166.3C409.8 166.3 410.8 163 411.5 160C411.2 161.9 410.3 165.7 411.1 165.8C411.9 165.9 414.8 157.3 416.7 146.5" fill="#F777BA"/>
<path d="M420.2 90.2C424 118.3 415.7 152 415.7 152L404.1 149.5C404.1 149.5 408.4 119.1 403.6 92.3" fill="#F777BA"/>
<path d="M395.7 65.2C401.2 65.2 406.9 67 411.9 70.9C419.6 77 421.6 91 421.6 91L403.3 94.7C403.3 94.7 402.3 82.9 402.2 78.9" fill="#FF9357"/>
<path d="M402.7 94.7C402.1 89.3 400.5 84.4 400.5 84.4" stroke="#A52F2D" stroke-width="0.75" stroke-miterlimit="10"/>
<path d="M545.982 79.0791L539.943 56.8864L517.75 62.9262L523.79 85.1189L545.982 79.0791Z" stroke="#91ABE5" stroke-width="1.5" stroke-miterlimit="10"/>
<path d="M25.5744 328.247L26.9869 317.035L15.7751 315.623L14.3626 326.835L25.5744 328.247Z" stroke="#91ABE5" stroke-width="1.5" stroke-miterlimit="10"/>
<path d="M591.702 337.35C592.419 332.375 588.967 327.761 583.993 327.044C579.018 326.327 574.404 329.778 573.687 334.753C572.97 339.727 576.421 344.341 581.396 345.058C586.37 345.775 590.984 342.324 591.702 337.35Z" stroke="#FF9C94" stroke-width="1.5" stroke-miterlimit="10"/>
<path d="M224.9 24.4C224.9 26.9 222.9 29 220.3 29C217.7 29 215.7 27 215.7 24.4C215.7 21.9 217.7 19.8 220.3 19.8C222.9 19.8 224.9 21.9 224.9 24.4Z" stroke="#91ABE5" stroke-width="1.5" stroke-miterlimit="10"/>
<path d="M602.5 225.1C602.5 227.6 600.5 229.7 597.9 229.7C595.4 229.7 593.3 227.7 593.3 225.1C593.3 222.6 595.3 220.5 597.9 220.5C600.4 220.6 602.5 222.6 602.5 225.1Z" stroke="#91ABE5" stroke-width="1.5" stroke-miterlimit="10"/>
<path d="M607 319.1C607 321.6 605 323.7 602.4 323.7C599.9 323.7 597.8 321.7 597.8 319.1C597.8 316.6 599.8 314.5 602.4 314.5C605 314.6 607 316.6 607 319.1Z" stroke="#91ABE5" stroke-width="1.5" stroke-miterlimit="10"/>
<path d="M9.90001 286.1C9.90001 288.6 7.90001 290.7 5.30001 290.7C2.80001 290.7 0.700012 288.7 0.700012 286.1C0.700012 283.5 2.70001 281.5 5.30001 281.5C7.80001 281.5 9.90001 283.6 9.90001 286.1Z" stroke="#FF9C94" stroke-width="1.5" stroke-miterlimit="10"/>
<path d="M120 41.2L120.5 44.2C120.7 45.5 121.9 46.5 123.3 46.5H125.3C126.7 46.5 127.8 47.5 128.1 48.8L128.4 50.8C128.6 52.1 129.8 53.1 131.2 53.1H133.2C134.6 53.1 135.7 54.1 136 55.4L136.3 57.4C136.5 58.7 137.7 59.7 139.1 59.7H141.5" stroke="#91ABE5" stroke-width="1.5" stroke-miterlimit="10"/>
<path d="M32.6 240.5L31.7 237.6C31.3 236.3 30 235.5 28.6 235.8L26.6 236.2C25.3 236.4 23.9 235.6 23.5 234.4L22.9 232.5C22.5 231.2 21.2 230.4 19.8 230.7L17.8 231.1C16.5 231.3 15.1 230.5 14.7 229.3L14.1 227.4C13.7 226.1 12.4 225.3 11 225.6L8.70001 226" stroke="#91ABE5" stroke-width="1.5" stroke-miterlimit="10"/>
<path d="M499.7 119.8L502.8 119.5C504.2 119.4 505.2 118.3 505.3 116.9L505.4 114.9C505.5 113.5 506.5 112.4 507.9 112.3L509.9 112.1C511.3 112 512.3 110.9 512.4 109.5L512.5 107.5C512.6 106.1 513.6 105 515 104.9L517 104.7C518.4 104.6 519.4 103.5 519.5 102.1L519.6 99.7" stroke="#91ABE5" stroke-width="1.5" stroke-miterlimit="10"/>
<path d="M594.2 164.1L591.3 165C590 165.4 589.2 166.7 589.4 168.1L589.7 170.1C589.9 171.4 589.1 172.8 587.8 173.2L585.9 173.8C584.6 174.2 583.8 175.5 584 176.9L584.3 178.9C584.5 180.2 583.7 181.6 582.4 182L580.5 182.6C579.2 183 578.4 184.3 578.6 185.7L579 188.1" stroke="#91ABE5" stroke-width="1.5" stroke-miterlimit="10"/>
<path d="M610.8 297L613.3 298.7C614.4 299.5 615.9 299.3 616.9 298.3L618.2 296.8C619.1 295.8 620.6 295.6 621.8 296.4L623.5 297.5C624.6 298.3 626.1 298.1 627.1 297.1L628.4 295.6C629.3 294.6 630.8 294.4 632 295.2L633.7 296.3C634.8 297.1 636.3 296.9 637.3 295.9L638.9 294.1" stroke="#91ABE5" stroke-width="1.5" stroke-miterlimit="10"/>
<path d="M584.1 201.7L573.6 208.2" stroke="#FF9C94" stroke-width="1.5" stroke-miterlimit="10"/>
<path d="M477.8 65.1L468.1 72.8" stroke="#FF9C94" stroke-width="1.5" stroke-miterlimit="10"/>
<path d="M262.4 83L250.4 80.1" stroke="#FF9C94" stroke-width="1.5" stroke-miterlimit="10"/>
<path d="M34.2 135.4L25 127.1" stroke="#FF9C94" stroke-width="1.5" stroke-miterlimit="10"/>
<path d="M210.787 142.932L207.947 130.642L205.058 130.321L199.602 141.687L202.119 141.967L203.066 139.917L207.78 140.442L208.253 142.65L210.787 142.932ZM206.212 133.169L207.296 138.181L204.052 137.82L206.212 133.169ZM214.013 143.291L215.387 130.957L213.207 130.715L211.834 143.048L214.013 143.291ZM218.188 143.756L219.561 131.422L217.382 131.179L216.008 143.513L218.188 143.756ZM222.317 134.637C223.061 134.72 223.737 134.179 223.818 133.453C223.899 132.726 223.36 132.033 222.617 131.95C221.89 131.87 221.212 132.427 221.131 133.154C221.05 133.88 221.591 134.556 222.317 134.637ZM222.362 144.221L223.303 135.773L221.123 135.53L220.183 143.978L222.362 144.221ZM234.667 136.799C233.552 136.675 232.662 136.986 232.014 137.735C231.615 136.869 230.883 136.377 229.852 136.263C228.788 136.144 227.969 136.429 227.378 137.133L227.477 136.238L225.298 135.995L224.357 144.443L226.537 144.685L227.065 139.938C227.203 138.704 227.903 138.098 228.866 138.205C229.761 138.305 230.219 138.955 230.107 139.969L229.544 145.02L231.724 145.263L232.252 140.515C232.39 139.282 233.039 138.67 234.036 138.781C234.932 138.881 235.389 139.53 235.277 140.544L234.714 145.596L236.894 145.839L237.473 140.635C237.708 138.523 236.61 137.015 234.667 136.799ZM247.327 143.631C247.413 143.315 247.479 143.032 247.511 142.744C247.652 141.477 247.363 140.385 246.648 139.433C245.95 138.483 244.966 137.945 243.733 137.808C242.432 137.663 241.304 137.965 240.38 138.735C239.458 139.487 238.917 140.505 238.776 141.772C238.633 143.056 238.937 144.167 239.687 145.106C240.438 146.045 241.506 146.592 242.909 146.748C244.531 146.928 245.832 146.457 246.793 145.35L245.149 144.141C244.664 144.651 243.99 144.867 243.162 144.775C241.861 144.63 241.126 144.018 240.957 142.921L247.327 143.631ZM241.111 141.228C241.485 140.175 242.349 139.638 243.515 139.768C244.511 139.879 245.294 140.531 245.42 141.708L241.111 141.228ZM254.226 138.976C253.077 138.848 252.189 139.143 251.577 139.879L251.682 138.933L249.503 138.69L248.562 147.138L250.742 147.38L251.249 142.819C251.406 141.416 252.209 140.804 253.341 140.931C254.355 141.043 254.946 141.725 254.82 142.857L254.273 147.774L256.452 148.016L257.03 142.829C257.152 141.731 256.942 140.852 256.403 140.16C255.882 139.469 255.155 139.08 254.226 138.976ZM264.086 140.314L262.177 140.101L262.44 137.736L260.187 138.152L259.997 139.858L258.527 139.695L258.294 141.79L259.764 141.954L259.373 145.468C259.115 147.783 260.117 148.766 263.145 148.762L263.366 146.785C262.108 146.713 261.451 146.623 261.552 145.71L261.944 142.196L263.853 142.409L264.086 140.314ZM271.668 142.167C271.101 141.266 270.234 140.759 269.051 140.627C267.919 140.501 266.907 140.833 266.001 141.604C265.11 142.378 264.588 143.38 264.449 144.63C264.31 145.881 264.597 146.99 265.295 147.94C266.01 148.892 266.926 149.422 268.058 149.548C269.241 149.68 270.198 149.376 270.949 148.621L270.838 149.618L273.018 149.861L273.959 141.413L271.779 141.17L271.668 142.167ZM267.096 146.67C266.707 146.165 266.552 145.566 266.629 144.873C266.706 144.18 266.989 143.63 267.478 143.24C267.968 142.833 268.55 142.675 269.226 142.75C269.901 142.826 270.434 143.107 270.823 143.612C271.23 144.103 271.386 144.701 271.309 145.394C271.232 146.087 270.948 146.637 270.441 147.042C269.953 147.433 269.371 147.59 268.695 147.515C268.019 147.44 267.486 147.158 267.096 146.67ZM280.767 142.171L278.858 141.958L279.121 139.593L276.868 140.009L276.678 141.716L275.208 141.552L274.975 143.647L276.445 143.811L276.054 147.325C275.796 149.64 276.798 150.624 279.827 150.619L280.047 148.642C278.789 148.57 278.132 148.48 278.233 147.568L278.625 144.053L280.534 144.266L280.767 142.171ZM283.498 141.449C284.241 141.532 284.917 140.991 284.998 140.264C285.079 139.538 284.541 138.845 283.797 138.762C283.071 138.681 282.393 139.239 282.312 139.965C282.231 140.692 282.772 141.368 283.498 141.449ZM283.543 151.033L284.483 142.585L282.304 142.342L281.363 150.79L283.543 151.033ZM292.852 151.009C293.809 150.243 294.367 149.227 294.506 147.977C294.646 146.727 294.323 145.63 293.557 144.673C292.792 143.715 291.776 143.157 290.526 143.018C289.275 142.879 288.162 143.2 287.204 143.965C286.247 144.731 285.708 145.732 285.569 146.982C285.429 148.232 285.733 149.344 286.499 150.301C287.265 151.259 288.282 151.8 289.532 151.939C290.783 152.078 291.894 151.774 292.852 151.009ZM288.204 148.969C287.831 148.482 287.673 147.9 287.748 147.225C287.823 146.549 288.105 146.016 288.576 145.623C289.065 145.233 289.63 145.074 290.289 145.147C290.948 145.22 291.464 145.5 291.854 145.988C292.245 146.476 292.402 147.058 292.327 147.734C292.252 148.41 291.97 148.943 291.482 149.334C290.994 149.724 290.428 149.883 289.769 149.81C289.111 149.737 288.594 149.457 288.204 148.969ZM301.233 144.21C300.084 144.082 299.196 144.377 298.584 145.113L298.69 144.166L296.51 143.924L295.569 152.372L297.749 152.614L298.257 148.052C298.413 146.65 299.217 146.038 300.349 146.164C301.362 146.277 301.954 146.959 301.828 148.091L301.28 153.007L303.46 153.25L304.037 148.063C304.159 146.965 303.949 146.086 303.411 145.393C302.889 144.702 302.163 144.314 301.233 144.21Z" fill="white"/>
<path d="M376.277 191.613C377.552 191.604 378.586 191.274 379.381 190.622C380.175 189.97 380.577 189.1 380.569 187.995C380.564 187.315 380.373 186.722 380.115 186.316C379.891 185.909 379.344 185.488 378.986 185.27C378.815 185.152 378.559 185.035 378.235 184.918C377.911 184.784 377.655 184.684 377.468 184.635L376.65 184.368C375.764 184.103 375.167 183.852 374.843 183.633C374.535 183.397 374.38 183.093 374.377 182.719C374.372 182.022 374.964 181.524 375.933 181.517C376.97 181.51 377.738 182.015 378.222 183.031L380.185 181.878C379.357 180.201 377.837 179.226 375.916 179.239C374.845 179.247 373.913 179.577 373.152 180.228C372.392 180.863 372.024 181.732 372.032 182.803C372.039 183.891 372.436 184.704 373.171 185.243C373.923 185.765 374.571 186.015 375.644 186.331C376.615 186.596 377.28 186.846 377.655 187.081C378.031 187.3 378.22 187.621 378.223 188.046C378.229 188.777 377.637 189.308 376.328 189.318C374.968 189.328 374.046 188.722 373.578 187.518L371.581 188.706C372.257 190.52 373.914 191.63 376.277 191.613ZM386.905 182.561C385.716 182.569 384.8 182.984 384.16 183.822L384.153 182.819L381.96 182.834L382.045 194.734L384.238 194.718L384.207 190.315C384.859 191.144 385.78 191.545 386.97 191.537C388.109 191.529 389.092 191.097 389.884 190.224C390.694 189.351 391.094 188.277 391.085 187.019C391.076 185.761 390.661 184.71 389.839 183.849C389.034 182.988 388.044 182.553 386.905 182.561ZM384.859 188.798C384.414 188.342 384.189 187.766 384.184 187.069C384.179 186.372 384.396 185.792 384.834 185.347C385.273 184.885 385.832 184.66 386.512 184.655C387.192 184.65 387.755 184.867 388.2 185.323C388.662 185.762 388.888 186.338 388.893 187.035C388.898 187.732 388.681 188.311 388.225 188.774C387.786 189.219 387.227 189.444 386.547 189.449C385.867 189.454 385.304 189.237 384.859 188.798ZM399.897 190.152C400.757 189.279 401.192 188.205 401.183 186.947C401.174 185.689 400.724 184.638 399.851 183.777C398.978 182.917 397.904 182.482 396.646 182.491C395.388 182.5 394.32 182.95 393.459 183.823C392.599 184.696 392.181 185.753 392.19 187.011C392.199 188.269 392.632 189.337 393.505 190.198C394.378 191.059 395.452 191.476 396.71 191.467C397.968 191.458 399.036 191.025 399.897 190.152ZM395.041 188.674C394.613 188.235 394.388 187.676 394.383 186.996C394.378 186.316 394.595 185.753 395.017 185.308C395.456 184.863 395.998 184.638 396.661 184.633C397.324 184.629 397.87 184.846 398.315 185.284C398.76 185.723 398.985 186.283 398.99 186.963C398.995 187.643 398.778 188.205 398.339 188.65C397.9 189.096 397.358 189.32 396.695 189.325C396.032 189.33 395.486 189.113 395.041 188.674ZM404.888 182.67L402.695 182.686L402.756 191.186L404.949 191.17L404.92 187.107C404.914 186.291 405.165 185.712 405.689 185.351C406.214 184.99 406.825 184.85 407.488 184.93L407.471 182.482C406.315 182.49 405.299 183.041 404.899 184.132L404.888 182.67ZM413.849 182.606L411.928 182.62L411.911 180.24L409.723 180.919L409.735 182.636L408.256 182.646L408.271 184.754L409.75 184.744L409.775 188.28C409.792 190.609 410.903 191.468 413.91 191.106L413.895 189.117C412.638 189.194 411.975 189.182 411.968 188.264L411.943 184.728L413.864 184.714L413.849 182.606Z" fill="white"/>
<path d="M233.277 320.613C234.552 320.604 235.586 320.274 236.381 319.622C237.175 318.97 237.577 318.1 237.569 316.995C237.564 316.315 237.373 315.722 237.115 315.316C236.891 314.909 236.344 314.488 235.986 314.27C235.815 314.152 235.559 314.035 235.235 313.918C234.911 313.784 234.655 313.684 234.468 313.635L233.65 313.368C232.764 313.103 232.167 312.852 231.843 312.633C231.535 312.397 231.38 312.093 231.377 311.719C231.372 311.022 231.964 310.524 232.933 310.517C233.97 310.51 234.738 311.015 235.222 312.031L237.185 310.878C236.357 309.201 234.837 308.226 232.916 308.239C231.845 308.247 230.913 308.577 230.152 309.228C229.392 309.863 229.024 310.732 229.032 311.803C229.039 312.891 229.436 313.705 230.171 314.243C230.923 314.765 231.571 315.015 232.644 315.331C233.615 315.596 234.28 315.846 234.655 316.081C235.031 316.3 235.22 316.621 235.223 317.046C235.229 317.777 234.637 318.308 233.328 318.318C231.968 318.328 231.046 317.722 230.578 316.518L228.581 317.706C229.257 319.52 230.914 320.63 233.277 320.613ZM245.66 312.789C244.991 311.961 244.07 311.56 242.88 311.568C241.741 311.576 240.775 312.025 239.965 312.898C239.173 313.771 238.772 314.828 238.781 316.086C238.79 317.344 239.206 318.412 240.011 319.273C240.833 320.134 241.805 320.552 242.944 320.544C244.134 320.536 245.049 320.121 245.706 319.283L245.713 320.286L247.906 320.271L247.846 311.771L245.653 311.787L245.66 312.789ZM241.649 317.799C241.204 317.343 240.979 316.767 240.974 316.07C240.969 315.373 241.186 314.794 241.625 314.348C242.063 313.886 242.623 313.661 243.303 313.656C243.983 313.652 244.545 313.868 244.991 314.324C245.453 314.763 245.678 315.339 245.683 316.036C245.688 316.733 245.471 317.313 245.015 317.775C244.577 318.22 244.017 318.445 243.337 318.45C242.657 318.455 242.095 318.238 241.649 317.799ZM254.558 311.485C253.402 311.493 252.555 311.89 252.034 312.693L252.027 311.741L249.834 311.757L249.895 320.256L252.088 320.241L252.055 315.651C252.045 314.24 252.771 313.538 253.91 313.53C254.93 313.522 255.597 314.129 255.605 315.268L255.641 320.215L257.834 320.2L257.796 314.981C257.788 313.876 257.476 313.028 256.86 312.403C256.26 311.779 255.493 311.478 254.558 311.485ZM264.507 311.652L262.586 311.665L262.569 309.286L260.381 309.964L260.393 311.681L258.914 311.692L258.929 313.8L260.408 313.789L260.434 317.325C260.45 319.654 261.562 320.513 264.568 320.151L264.554 318.163C263.296 318.24 262.633 318.227 262.627 317.309L262.601 313.773L264.522 313.76L264.507 311.652ZM269.707 308.146L268.364 310.485L270.472 310.47L272.342 308.128L269.707 308.146ZM274.086 316.734C274.135 316.411 274.167 316.122 274.165 315.833C274.156 314.558 273.74 313.507 272.918 312.646C272.113 311.784 271.073 311.367 269.832 311.376C268.523 311.385 267.438 311.818 266.611 312.691C265.784 313.547 265.367 314.621 265.376 315.896C265.385 317.188 265.818 318.256 266.674 319.099C267.53 319.943 268.655 320.36 270.066 320.35C271.698 320.339 272.935 319.718 273.759 318.505L271.984 317.497C271.563 318.061 270.919 318.355 270.086 318.361C268.777 318.37 267.974 317.849 267.678 316.78L274.086 316.734ZM267.631 315.08C267.879 313.991 268.673 313.356 269.846 313.348C270.849 313.34 271.703 313.895 271.966 315.049L267.631 315.08Z" fill="white"/>
<path d="M385.597 353.618C386.821 353.609 387.821 353.262 388.598 352.56C389.375 351.857 389.759 350.885 389.751 349.644L389.692 341.45L387.363 341.467L387.422 349.661C387.429 350.681 386.821 351.314 385.58 351.323C384.679 351.33 384.048 350.96 383.668 350.215L381.654 351.385C382.413 352.893 383.727 353.631 385.597 353.618ZM398.112 345.793C397.443 344.965 396.522 344.564 395.332 344.572C394.193 344.58 393.227 345.029 392.418 345.902C391.625 346.775 391.224 347.832 391.233 349.09C391.242 350.348 391.658 351.416 392.463 352.277C393.285 353.138 394.257 353.556 395.396 353.548C396.586 353.54 397.501 353.125 398.158 352.287L398.166 353.29L400.358 353.275L400.298 344.775L398.105 344.79L398.112 345.793ZM394.102 350.803C393.656 350.347 393.431 349.771 393.426 349.074C393.421 348.377 393.638 347.797 394.077 347.352C394.516 346.89 395.075 346.665 395.755 346.66C396.435 346.655 396.998 346.872 397.443 347.328C397.905 347.767 398.13 348.343 398.135 349.04C398.14 349.737 397.923 350.317 397.468 350.779C397.029 351.224 396.469 351.449 395.789 351.454C395.109 351.459 394.547 351.242 394.102 350.803ZM404.479 344.745L402.286 344.761L402.347 353.26L404.54 353.245L404.511 349.182C404.505 348.366 404.756 347.786 405.28 347.425C405.805 347.064 406.416 346.924 407.079 347.004L407.062 344.556C405.906 344.565 404.89 345.116 404.49 346.207L404.479 344.745ZM411.907 350.642L409.808 344.707L407.394 344.724L410.684 353.201L413.183 353.183L416.352 344.66L413.939 344.677L411.907 350.642ZM418.491 343.625C419.239 343.619 419.846 343.003 419.841 342.272C419.836 341.541 419.219 340.916 418.471 340.922C417.74 340.927 417.133 341.56 417.138 342.291C417.143 343.022 417.76 343.63 418.491 343.625ZM419.664 353.137L419.603 344.637L417.41 344.652L417.471 353.152L419.664 353.137ZM423.584 347.022C423.581 346.597 424.004 346.322 424.565 346.318C425.194 346.314 425.655 346.6 425.931 347.176L427.794 346.142C427.122 344.991 425.928 344.353 424.551 344.363C423.633 344.37 422.87 344.613 422.244 345.111C421.635 345.591 421.334 346.256 421.34 347.089C421.353 348.857 422.938 349.373 424.198 349.687C425.066 349.902 425.748 350.152 425.751 350.611C425.755 351.104 425.366 351.345 424.584 351.35C423.717 351.356 423.17 350.986 422.91 350.257L421.014 351.342C421.652 352.68 422.847 353.352 424.598 353.339C425.567 353.332 426.381 353.088 427.024 352.625C427.683 352.144 428.002 351.462 427.995 350.595C427.999 348.776 426.38 348.192 425.137 347.946C424.269 347.731 423.587 347.481 423.584 347.022Z" fill="white"/>
</g>
<defs>
<clipPath id="clip0">
<rect width="639.8" height="508.2" fill="white"/>
</clipPath>
</defs>
</svg>
